<svg width="24" height="24" viewBox="0 0 24 24" fill="none" xmlns="http://www.w3.org/2000/svg">
<g clip-path="url(#clip0_2_753)">
<path d="M22.4994 2.75227C19.3801 1.09298 15.5822 0 12 0C8.41004 0 4.5924 1.10756 1.50061 2.75227C0.735896 3.15905 0.260864 3.95264 0.260864 4.82334V6.03942C0.260864 6.84122 0.66188 7.57969 1.33355 8.01483C1.98052 8.43394 2.78171 8.50537 3.49088 8.21245L4.95647 10.4109V14.8695C4.95647 16.1641 6.00971 17.2174 7.3043 17.2174H8.08693V21.6522C8.08693 22.9468 9.14016 24 10.4348 24C11.0356 24 11.5843 23.7731 12 23.4007C12.4156 23.7732 12.9644 24 13.5652 24C14.8598 24 15.913 22.9468 15.913 21.6522V17.2174H16.6956C17.9902 17.2174 19.0434 16.1641 19.0434 14.8695V10.4108L20.5088 8.21264C21.2448 8.51672 22.0421 8.41922 22.6664 8.01473C23.3381 7.57959 23.7391 6.84113 23.7391 6.03933V4.82325C23.7391 3.95264 23.2642 3.15909 22.4994 2.75227ZM8.20791 1.97278C9.38616 1.72636 10.6663 1.5652 12 1.5652C13.3337 1.5652 14.6138 1.72636 15.7921 1.97278C16.023 3.04744 15.9098 4.18298 15.5674 5.02744C14.4453 4.82302 13.2468 4.69561 12 4.69561C10.7532 4.69561 9.55468 4.82302 8.43268 5.02744C8.08955 4.18111 7.97738 3.04533 8.20791 1.97278ZM2.91535 6.75755C2.67352 6.86592 2.40713 6.8453 2.18457 6.70116C1.95675 6.55355 1.82611 6.31237 1.82611 6.03937V4.8233C1.82611 4.52822 1.97925 4.2705 2.23571 4.13414C3.04055 3.70598 4.58485 2.9633 6.55993 2.38622C6.45108 3.45258 6.58008 4.49189 6.88763 5.36597C5.51583 5.71706 4.17019 6.19542 2.91535 6.75755ZM8.08697 15.6522H7.30435C6.87282 15.6522 6.52172 15.3011 6.52172 14.8695V12.7587L8.08693 15.1065V15.6522H8.08697ZM14.3478 21.6522C14.3478 22.0837 13.9967 22.4348 13.5652 22.4348C13.1337 22.4348 12.7826 22.0837 12.7826 21.6522V19.5652C12.7826 19.133 12.4322 18.7826 12 18.7826C11.5678 18.7826 11.2173 19.133 11.2173 19.5652V21.6522C11.2173 22.0837 10.8662 22.4348 10.4347 22.4348C10.0032 22.4348 9.65208 22.0837 9.65208 21.6522V17.2174H14.3477V21.6522H14.3478ZM14.3478 15.6522H9.65218V15.1937L10.7589 14.087H13.2411L14.3478 15.1937V15.6522ZM11.2174 11.7391C11.2174 11.3076 11.5685 10.9565 12 10.9565C12.4315 10.9565 12.7826 11.3076 12.7826 11.7391C12.7826 12.1707 12.4315 12.5218 12 12.5218C11.5685 12.5217 11.2174 12.1707 11.2174 11.7391ZM17.4783 14.8695C17.4783 15.3011 17.1272 15.6522 16.6957 15.6522H15.913V15.1065L17.4782 12.7587V14.8695H17.4783ZM15.0088 13.6412L14.1186 12.751C14.1186 12.7509 14.1185 12.7509 14.1184 12.7508C14.2653 12.4443 14.3478 12.1012 14.3478 11.7391C14.3478 10.4445 13.2946 9.39131 12 9.39131C10.7054 9.39131 9.65218 10.4445 9.65218 11.7391C9.65218 12.1012 9.73468 12.4443 9.88163 12.7508C9.88158 12.7508 9.88149 12.7509 9.88144 12.751L8.99124 13.6412C8.84944 13.4285 5.28099 8.07581 4.96843 7.60697C7.18379 6.78098 9.59391 6.26091 12 6.26091C14.4057 6.26091 16.8153 6.7807 19.0316 7.60692C18.7177 8.07778 15.15 13.4295 15.0088 13.6412ZM22.1739 6.03937C22.1739 6.31233 22.0433 6.55355 21.8154 6.70116C21.5929 6.84544 21.3265 6.86592 21.0847 6.75755C19.8222 6.19205 18.4764 5.71505 17.1124 5.36597C17.4199 4.49189 17.5489 3.45253 17.4401 2.38622C19.4152 2.9633 20.9595 3.70603 21.7644 4.13414C22.0208 4.27055 22.1739 4.52822 22.1739 4.8233V6.03937Z" fill="#8E8E8E"/>
</g>
<defs>
<clipPath id="clip0_2_753">
<rect width="24" height="24" fill="white"/>
</clipPath>
</defs>
</svg>
