<svg width="24" height="24" viewBox="0 0 24 24" fill="none" xmlns="http://www.w3.org/2000/svg">
<g clip-path="url(#clip0_2_849)">
<path d="M23.2493 11.2504H13.7495C13.3355 11.2504 12.9995 10.9144 12.9995 10.5004C12.9995 10.0864 13.3355 9.75044 13.7495 9.75044H23.2493C23.6632 9.75044 23.9992 10.0864 23.9992 10.5004C23.9992 10.9144 23.6632 11.2504 23.2493 11.2504Z" fill="#8E8E8E"/>
<path d="M19.4994 15.0003C19.3074 15.0003 19.1155 14.9272 18.9694 14.7804C18.6764 14.4872 18.6764 14.0123 18.9694 13.7193L22.1893 10.4995L18.9694 7.2795C18.6764 6.98654 18.6764 6.51158 18.9694 6.21862C19.2625 5.92548 19.7375 5.92548 20.0304 6.21862L23.7803 9.9685C24.0733 10.2615 24.0733 10.7364 23.7803 11.0294L20.0304 14.7793C19.8834 14.9272 19.6915 15.0003 19.4994 15.0003Z" fill="#8E8E8E"/>
<path d="M7.99981 24C7.78577 24 7.58271 23.97 7.37983 23.907L1.3619 21.902C0.543074 21.616 0 20.8531 0 20.0002V2.00075C0 0.897753 0.897006 0.000747681 2 0.000747681C2.21386 0.000747681 2.41692 0.0307761 2.61997 0.0937624L8.63773 2.0987C9.45673 2.38471 9.99963 3.14768 9.99963 4.00056V22C9.99963 23.103 9.1028 24 7.99981 24ZM2 1.5007C1.72498 1.5007 1.49995 1.72573 1.49995 2.00075V20.0002C1.49995 20.2131 1.64295 20.4111 1.84693 20.4821L7.83667 22.4781C7.8797 22.492 7.93573 22.5 7.99981 22.5C8.27483 22.5 8.49967 22.275 8.49967 22V4.00056C8.49967 3.78762 8.35667 3.58969 8.1527 3.51864L2.16296 1.52267C2.11993 1.50876 2.0639 1.5007 2 1.5007Z" fill="#8E8E8E"/>
<path d="M15.2494 8.00056C14.8355 8.00056 14.4995 7.66457 14.4995 7.25058V2.75072C14.4995 2.06172 13.9386 1.5007 13.2496 1.5007H1.99998C1.58599 1.5007 1.25 1.16471 1.25 0.750724C1.25 0.336736 1.58599 0.000747681 1.99998 0.000747681H13.2496C14.7666 0.000747681 15.9994 1.23374 15.9994 2.75072V7.25058C15.9994 7.66457 15.6634 8.00056 15.2494 8.00056Z" fill="#8E8E8E"/>
<path d="M13.2496 21.0001H9.24961C8.83562 21.0001 8.49963 20.6641 8.49963 20.2501C8.49963 19.8361 8.83562 19.5001 9.24961 19.5001H13.2496C13.9386 19.5001 14.4994 18.9391 14.4994 18.2501V13.7503C14.4994 13.3363 14.8354 13.0003 15.2494 13.0003C15.6634 13.0003 15.9994 13.3363 15.9994 13.7503V18.2501C15.9994 19.7671 14.7666 21.0001 13.2496 21.0001Z" fill="#8E8E8E"/>
</g>
<defs>
<clipPath id="clip0_2_849">
<rect width="24" height="24" fill="white"/>
</clipPath>
</defs>
</svg>
