<svg width="24" height="24" viewBox="0 0 24 24" fill="none" xmlns="http://www.w3.org/2000/svg">
<g clip-path="url(#clip0_992_18646)">
<path d="M21.8584 8.29719H18.7269V5.1146C18.7269 4.72631 18.4121 4.41151 18.0238 4.41151H17.3207V2.78464C17.3207 1.24917 16.0715 0 14.536 0H9.46399C7.92848 0 6.67931 1.24917 6.67931 2.78464V4.41146H5.97621C5.58792 4.41146 5.27312 4.72626 5.27312 5.11456V8.29714H2.14157C1.75328 8.29714 1.43848 8.61194 1.43848 9.00024V23.2969C1.43848 23.6852 1.75328 24 2.14157 24H21.8584C22.2467 24 22.5615 23.6852 22.5615 23.2969V9.00029C22.5615 8.61199 22.2467 8.29719 21.8584 8.29719ZM8.0855 2.78464C8.0855 2.02454 8.7039 1.40619 9.46399 1.40619H14.536C15.2961 1.40619 15.9145 2.02454 15.9145 2.78464V4.41146H8.0855V2.78464ZM17.3207 5.81765V22.5938H15.8091V19.1664C15.8091 18.7781 15.4943 18.4633 15.106 18.4633H8.89397C8.50567 18.4633 8.19087 18.7781 8.19087 19.1664V22.5938H6.67931V5.81765H17.3207ZM12.7031 19.8695H14.4029V22.5938H12.7031V19.8695ZM11.2969 22.5938H9.59702V19.8695H11.2969V22.5938ZM2.84467 9.70338H5.27312V22.5938H2.84467V9.70338ZM21.1553 22.5938H18.7269V9.70338H21.1553V22.5938Z" fill="black"/>
<path d="M14.4167 16.5075C14.5066 16.992 15.09 17.2333 15.4962 16.9547C15.987 16.6314 15.874 15.8644 15.3101 15.6975C14.81 15.5394 14.3084 15.9945 14.4167 16.5075Z" fill="black"/>
<path d="M11.5542 16.9133C12.0094 17.2884 12.7036 16.9596 12.703 16.3701C12.707 15.8452 12.1297 15.4983 11.6685 15.75C11.231 15.9758 11.1686 16.6067 11.5542 16.9133Z" fill="black"/>
<path d="M8.2047 16.5075C8.30257 17.0232 8.93733 17.2495 9.33997 16.9134C9.87207 16.468 9.5163 15.609 8.82483 15.6704C8.42313 15.7011 8.11597 16.1141 8.2047 16.5075Z" fill="black"/>
<path d="M15.7953 13.42C15.6967 12.9043 15.0631 12.678 14.66 13.0141C14.2038 13.3868 14.3899 14.1331 14.9684 14.2468C15.4499 14.351 15.8988 13.9014 15.7953 13.42Z" fill="black"/>
<path d="M11.3105 13.6951C11.4015 14.1799 11.9833 14.4209 12.3904 14.1422C12.881 13.8158 12.7691 13.0547 12.2043 12.8851C11.704 12.727 11.2027 13.1816 11.3105 13.6951Z" fill="black"/>
<path d="M8.20467 13.6951C8.29453 14.1797 8.87786 14.4209 9.28411 14.1423C9.77525 13.8164 9.66303 13.0542 9.09803 12.8851C8.59784 12.7271 8.09625 13.1819 8.20467 13.6951Z" fill="black"/>
<path d="M15.8056 10.676C15.7579 10.1533 15.1502 9.8656 14.7158 10.1604C14.2251 10.4834 14.3379 11.2511 14.9019 11.4175C15.3712 11.5684 15.8608 11.1652 15.8056 10.676Z" fill="black"/>
<path d="M11.3105 10.8827C11.4013 11.3676 11.9834 11.6085 12.3904 11.3299C12.8812 11.0036 12.769 10.2417 12.2038 10.0728C11.7037 9.9147 11.2028 10.3697 11.3105 10.8827Z" fill="black"/>
<path d="M8.20468 10.8827C8.29453 11.3673 8.87787 11.6086 9.28412 11.3299C9.77507 11.0041 9.66285 10.2418 9.09803 10.0727C8.59799 9.91458 8.09621 10.3697 8.20468 10.8827Z" fill="black"/>
<path d="M14.4167 8.07034C14.5065 8.55496 15.0901 8.79594 15.4962 8.51751C15.9868 8.19418 15.874 7.42724 15.3101 7.26037C14.81 7.10236 14.3084 7.55727 14.4167 8.07034Z" fill="black"/>
<path d="M11.3105 8.0703C11.4012 8.55464 11.9835 8.79617 12.3899 8.51747C12.8814 8.19207 12.7691 7.42987 12.2043 7.26033C11.7038 7.10232 11.203 7.55685 11.3105 8.0703Z" fill="black"/>
<path d="M8.20469 8.07034C8.29455 8.555 8.87788 8.79593 9.28413 8.51751C9.77499 8.19446 9.66207 7.42714 9.09805 7.26037C8.59758 7.10241 8.09674 7.55703 8.20469 8.07034Z" fill="black"/>
</g>
<defs>
<clipPath id="clip0_992_18646">
<rect width="24" height="24" fill="white"/>
</clipPath>
</defs>
</svg>
