<svg width="24" height="24" viewBox="0 0 24 24" fill="none" xmlns="http://www.w3.org/2000/svg">
<g clip-path="url(#clip0_2_836)">
<g clip-path="url(#clip1_2_836)">
<path d="M25.2969 2.8125H21.6636C21.337 1.20975 19.9166 0 18.2188 0C16.5209 0 15.1005 1.20975 14.7739 2.8125H2.70312C2.31481 2.8125 2 3.12731 2 3.51562C2 3.90394 2.31481 4.21875 2.70312 4.21875H14.7739C15.1005 5.8215 16.5209 7.03125 18.2188 7.03125C19.9166 7.03125 21.337 5.8215 21.6636 4.21875H25.2969C25.6852 4.21875 26 3.90394 26 3.51562C26 3.12731 25.6852 2.8125 25.2969 2.8125ZM18.2188 5.625C17.0558 5.625 16.1097 4.67906 16.1094 3.51623C16.1094 3.51605 16.1094 3.51586 16.1094 3.51562C16.1094 3.51539 16.1094 3.5152 16.1094 3.51502C16.1097 2.35219 17.0558 1.40625 18.2188 1.40625C19.3819 1.40625 20.3281 2.35252 20.3281 3.51562C20.3281 4.67873 19.3819 5.625 18.2188 5.625Z" fill="#8E8E8E"/>
<path d="M25.2969 11.2969H13.2261C12.8995 9.69412 11.4791 8.48438 9.78125 8.48438C8.08344 8.48438 6.66303 9.69412 6.33636 11.2969H2.70312C2.31481 11.2969 2 11.6117 2 12C2 12.3883 2.31481 12.7031 2.70312 12.7031H6.33636C6.66298 14.3059 8.08344 15.5156 9.78125 15.5156C11.4791 15.5156 12.8995 14.3059 13.2261 12.7031H25.2969C25.6852 12.7031 26 12.3883 26 12C26 11.6117 25.6852 11.2969 25.2969 11.2969ZM9.78125 14.1094C8.61833 14.1094 7.6722 13.1634 7.67188 12.0006C7.67188 12.0004 7.67192 12.0002 7.67192 12C7.67192 11.9998 7.67188 11.9996 7.67188 11.9994C7.6722 10.8366 8.61833 9.89062 9.78125 9.89062C10.9444 9.89062 11.8906 10.8369 11.8906 12C11.8906 13.1631 10.9444 14.1094 9.78125 14.1094Z" fill="#8E8E8E"/>
<path d="M25.2969 19.7812H21.6636C21.337 18.1785 19.9166 16.9688 18.2188 16.9688C16.5209 16.9688 15.1005 18.1785 14.7739 19.7812H2.70312C2.31481 19.7812 2 20.0961 2 20.4844C2 20.8727 2.31481 21.1875 2.70312 21.1875H14.7739C15.1005 22.7902 16.5209 24 18.2188 24C19.9166 24 21.337 22.7902 21.6636 21.1875H25.2969C25.6852 21.1875 26 20.8727 26 20.4844C26 20.0961 25.6852 19.7812 25.2969 19.7812ZM18.2188 22.5938C17.0558 22.5938 16.1097 21.6478 16.1094 20.485C16.1094 20.4848 16.1094 20.4846 16.1094 20.4844C16.1094 20.4841 16.1094 20.484 16.1094 20.4838C16.1097 19.3209 17.0558 18.375 18.2188 18.375C19.3819 18.375 20.3281 19.3213 20.3281 20.4844C20.3281 21.6475 19.3819 22.5938 18.2188 22.5938Z" fill="#8E8E8E"/>
</g>
</g>
<defs>
<clipPath id="clip0_2_836">
<rect width="24" height="24" fill="white"/>
</clipPath>
<clipPath id="clip1_2_836">
<rect width="24" height="24" fill="white" transform="translate(2)"/>
</clipPath>
</defs>
</svg>
