<svg width="24" height="24" viewBox="0 0 24 24" fill="none" xmlns="http://www.w3.org/2000/svg">
<g clip-path="url(#clip0_992_18632)">
<path d="M23.9819 6.44975C24.0378 6.20791 23.962 5.95456 23.7824 5.78328C22.3048 4.37382 20.179 3.88143 18.2345 4.49837C17.8598 4.61725 17.4993 4.77542 17.1594 4.96889C17.1216 4.57965 17.043 4.19397 16.9241 3.81925C16.3072 1.87465 14.6794 0.421414 12.6759 0.0266514C12.4324 -0.0213888 12.1816 0.0627986 12.0163 0.247842C11.851 0.432933 11.7956 0.691582 11.8707 0.92813L12.9183 4.23035C12.7805 4.16625 12.6455 4.10089 12.5164 4.03403C10.7053 3.09528 8.52662 3.2187 6.83074 4.35621C6.62463 4.49448 6.50677 4.73122 6.52073 4.979C6.53473 5.22679 6.67843 5.44882 6.89877 5.56302L9.93088 7.13463C8.0553 7.78322 6.66077 9.38128 6.27528 11.3374C6.22986 11.5678 6.30253 11.8055 6.46894 11.9711C6.6353 12.1367 6.87321 12.2082 7.10353 12.1617L10.3834 11.4988C9.61501 12.4943 8.94741 13.6185 8.41279 14.8259C7.68381 16.4722 7.2344 18.2051 7.09866 19.8746C4.98958 20.2127 3.15024 21.182 2.02551 22.5819H0.702342C0.314462 22.5819 0 22.8964 0 23.2843C0 23.6722 0.314462 23.9866 0.702342 23.9866H23.2688C23.6566 23.9866 23.9711 23.6722 23.9711 23.2843C23.9711 22.8964 23.6566 22.5819 23.2688 22.5819H15.5184C14.6353 21.4827 13.3115 20.6491 11.7624 20.178C11.8649 18.6068 12.2795 16.9647 12.9748 15.3946C13.4589 14.3013 14.0704 13.2703 14.7683 12.3639L17.0851 17.3451C17.183 17.5557 17.3786 17.7042 17.6078 17.742C17.6458 17.7482 17.684 17.7513 17.7219 17.7513C17.9122 17.7513 18.0964 17.6738 18.2301 17.5337C19.6063 16.0911 20.1081 14.0303 19.5568 12.1238L22.5242 13.6618C22.7445 13.776 23.0089 13.7654 23.2193 13.634C23.4299 13.5026 23.5554 13.2698 23.5496 13.0217C23.5014 10.9802 22.3464 9.12886 20.5351 8.19006C20.4213 8.13107 20.3005 8.07399 20.1742 8.01916L23.51 6.96082C23.7466 6.88586 23.926 6.69155 23.9819 6.44975ZM13.5004 22.582H4.04352C4.40368 22.3136 4.81071 22.0747 5.25768 21.8722C6.30544 21.3975 7.52067 21.1466 8.77197 21.1466C10.0233 21.1466 11.2385 21.3975 12.2863 21.8722C12.7332 22.0747 13.1402 22.3135 13.5004 22.582ZM11.6903 14.8259C10.9615 16.4719 10.5138 18.197 10.3771 19.8635C9.85587 19.7836 9.31862 19.7419 8.77197 19.7419C8.68801 19.7419 8.60434 19.7432 8.5209 19.7451C8.66619 18.3067 9.0669 16.818 9.69718 15.3946C10.4434 13.7093 11.4683 12.2076 12.6671 11.0373L14.0238 10.7632L14.1092 10.9467C13.1439 12.0769 12.3309 13.3792 11.6903 14.8259ZM17.4509 7.40948C17.1346 7.50982 16.9316 7.81801 16.9644 8.1483C16.9972 8.47858 17.2567 8.74084 17.5867 8.77708C18.3792 8.86408 19.2828 9.12319 19.8887 9.43723C20.847 9.93393 21.5598 10.7719 21.9082 11.7604L18.1869 9.83162C17.8871 9.67622 17.5189 9.75624 17.3107 10.0221C17.1024 10.2881 17.113 10.6646 17.3358 10.9185C17.717 11.3528 17.9998 11.8548 18.176 12.4106C18.5255 13.5122 18.3992 14.6918 17.8597 15.68L15.064 9.66891C14.9471 9.41761 14.6963 9.26268 14.4274 9.26268C14.3813 9.26268 14.3346 9.26727 14.288 9.27668L8.01709 10.5439C8.51603 9.54657 9.40089 8.7745 10.4926 8.42811C11.0483 8.25182 11.6215 8.19334 12.1961 8.25449C12.5316 8.29003 12.8457 8.08176 12.943 7.75831C13.0402 7.43486 12.8934 7.08795 12.5935 6.93254L8.80741 4.97011C9.81597 4.68505 10.9118 4.78441 11.87 5.28106C12.2307 5.46802 12.6089 5.63391 12.9747 5.79433C13.2494 5.91485 13.5088 6.02868 13.757 6.14892C14.0098 6.27127 14.3108 6.23151 14.5229 6.04787C14.7351 5.86423 14.8176 5.57187 14.7327 5.30442L13.6395 1.85845C14.5543 2.36994 15.2587 3.21505 15.5851 4.24389C15.7974 4.91289 15.8381 5.62848 15.703 6.31322C15.6425 6.61958 15.7916 6.92908 16.0689 7.07282C16.3461 7.21648 16.685 7.15991 16.9004 6.9339C17.3821 6.42868 17.9902 6.04942 18.6593 5.83717C19.6882 5.51077 20.7847 5.59931 21.73 6.05185L17.4509 7.40948Z" fill="black"/>
</g>
<defs>
<clipPath id="clip0_992_18632">
<rect width="24" height="24" fill="white"/>
</clipPath>
</defs>
</svg>
