<svg width="24" height="24" viewBox="0 0 24 24" fill="none" xmlns="http://www.w3.org/2000/svg">
<path fill-rule="evenodd" clip-rule="evenodd" d="M18.1053 6.56653C17.9592 6.55675 17.8302 6.57661 17.7234 6.61843C17.6047 6.66487 17.4956 6.73879 17.3953 6.84499L17.3879 6.85279L12.8753 11.3654C12.7027 11.5456 12.61 11.7706 12.61 12C12.61 12.2294 12.7027 12.4544 12.8753 12.6346L17.395 17.1544L17.4089 17.1699C17.4918 17.2625 17.5953 17.3354 17.7491 17.4022C17.8261 17.4357 17.9368 17.4551 18.1029 17.4437C18.2383 17.4246 18.368 17.3787 18.4752 17.3123C18.5743 17.251 18.6653 17.1596 18.7423 17.0352L18.7479 17.0263L18.7536 17.0176C19.7325 15.5308 20.25 13.7944 20.25 12.01C20.25 10.2256 19.7325 8.48923 18.7536 7.00249L18.7436 6.98725L18.7343 6.97159C18.66 6.84577 18.5725 6.75787 18.4752 6.69769C18.3639 6.62875 18.243 6.58501 18.1053 6.56653ZM17.1768 5.22156C17.5263 5.0848 17.8921 5.04458 18.2398 5.07241L18.2546 5.07359L18.2694 5.07536C18.6255 5.1181 18.9601 5.2337 19.2648 5.42231C19.5819 5.61858 19.831 5.88466 20.0157 6.19177C21.1509 7.92187 21.75 9.94003 21.75 12.01C21.75 14.0824 21.1495 16.1028 20.0118 17.8343C19.8294 18.1261 19.5823 18.3911 19.2648 18.5877C18.9562 18.7787 18.6119 18.8918 18.273 18.9342L18.2565 18.9363L18.2398 18.9376C17.9155 18.9635 17.5313 18.9432 17.151 18.7778C16.8508 18.6473 16.5599 18.4648 16.3064 18.187L11.801 13.6816C11.376 13.2424 11.11 12.649 11.11 12C11.11 11.351 11.376 10.7577 11.8011 10.3184L11.8096 10.3096L16.3127 5.80664C16.5508 5.55673 16.8392 5.35364 17.1768 5.22156Z" fill="#8E8E8E"/>
<path fill-rule="evenodd" clip-rule="evenodd" d="M12.127 5.44726C10.8065 5.11492 9.40314 5.19534 8.11572 5.68129C6.83964 6.16674 5.74117 7.0302 4.95639 8.1573C4.17173 9.29418 3.75 10.6256 3.75 12C3.75 13.3763 4.17284 14.7169 4.9556 15.8416L4.95792 15.8449C5.73041 16.9677 6.83688 17.8321 8.11572 18.3187C9.40284 18.8045 10.7966 18.8852 12.1281 18.5524L12.1292 18.5521C13.4692 18.2194 14.6562 17.4915 15.5665 16.4551C15.8398 16.1438 16.3137 16.1131 16.6249 16.3865C16.9361 16.6598 16.9669 17.1337 16.6935 17.4449C15.584 18.7082 14.1313 19.6003 12.4916 20.0077C10.8635 20.4146 9.15762 20.3155 7.58502 19.7216L7.5834 19.721C6.02328 19.1277 4.67058 18.0729 3.72329 16.6968C2.76679 15.3218 2.25 13.6829 2.25 12C2.25 10.3148 2.76804 8.68668 3.72286 7.3038L3.72445 7.30152C4.67945 5.92938 6.02028 4.87337 7.5834 4.27894L7.58502 4.27832C9.15726 3.68462 10.8733 3.58508 12.4925 3.99249C14.1201 4.39953 15.583 5.29064 16.6935 6.55506C16.9669 6.86628 16.9361 7.34016 16.6249 7.61346C16.3137 7.88682 15.8398 7.8561 15.5665 7.54488C14.6571 6.50946 13.4602 5.78059 12.1281 5.44756L12.127 5.44726Z" fill="#8E8E8E"/>
</svg>
