<svg width="24" height="24" viewBox="0 0 24 24" fill="none" xmlns="http://www.w3.org/2000/svg">
<path d="M12.3524 21H6.74988C4.68213 21 2.99988 19.3177 2.99988 17.25V5.25C2.99988 3.18225 4.68213 1.5 6.74988 1.5H15.7499C17.8176 1.5 19.4999 3.18225 19.4999 5.25V12.045C19.4999 12.459 19.1639 12.795 18.7499 12.795C18.3359 12.795 17.9999 12.459 17.9999 12.045V5.25C17.9999 4.0095 16.9904 3 15.7499 3H6.74988C5.50938 3 4.49988 4.0095 4.49988 5.25V17.25C4.49988 18.4905 5.50938 19.5 6.74988 19.5H12.3524C12.7664 19.5 13.1024 19.8353 13.1024 20.25C13.1024 20.6647 12.7664 21 12.3524 21Z" fill="black"/>
<path d="M18 23.25C17.8852 23.25 17.7697 23.2237 17.6647 23.1712C17.5252 23.1015 14.25 21.4245 14.25 18C14.25 15.9322 15.9322 14.25 18 14.25C20.0677 14.25 21.75 15.9322 21.75 18C21.75 21.4237 18.4747 23.1015 18.3352 23.1712C18.2295 23.2237 18.1147 23.25 18 23.25ZM18 15.75C16.7595 15.75 15.75 16.7595 15.75 18C15.75 19.9342 17.2987 21.1687 18 21.6277C18.6997 21.1695 20.25 19.935 20.25 18C20.25 16.7595 19.2405 15.75 18 15.75Z" fill="black"/>
<path d="M18 18.75C18.4142 18.75 18.75 18.4142 18.75 18C18.75 17.5858 18.4142 17.25 18 17.25C17.5858 17.25 17.25 17.5858 17.25 18C17.25 18.4142 17.5858 18.75 18 18.75Z" fill="black"/>
<path d="M12.4424 16.5001H11.9999C11.5859 16.5001 11.2499 16.1648 11.2499 15.7501C11.2499 15.3353 11.5859 15.0001 11.9999 15.0001H12.4424C12.8564 15.0001 13.1924 15.3353 13.1924 15.7501C13.1924 16.1648 12.8564 16.5001 12.4424 16.5001Z" fill="black"/>
<path d="M7.71739 17.4375H7.70239C7.49614 17.433 7.30114 17.3445 7.16239 17.1923L6.19489 16.1288C5.91589 15.8228 5.93839 15.348 6.24514 15.069C6.55114 14.7908 7.02589 14.8133 7.30489 15.1193L7.73914 15.597L9.21589 14.0985C9.50689 13.803 9.98164 13.8008 10.2771 14.091C10.5719 14.382 10.5756 14.8568 10.2846 15.1515L8.25214 17.214C8.11114 17.3565 7.91839 17.4375 7.71814 17.4375H7.71739Z" fill="black"/>
<path d="M15.7499 12H11.9999C11.5859 12 11.2499 11.664 11.2499 11.25C11.2499 10.836 11.5859 10.5 11.9999 10.5H15.7499C16.1639 10.5 16.4999 10.836 16.4999 11.25C16.4999 11.664 16.1639 12 15.7499 12Z" fill="black"/>
<path d="M7.71739 12.9375H7.70239C7.49689 12.933 7.30114 12.8445 7.16239 12.6923L6.19489 11.6295C5.91589 11.3235 5.93839 10.8488 6.24514 10.5698C6.55114 10.29 7.02589 10.314 7.30489 10.62L7.73914 11.097L9.21589 9.59851C9.50689 9.30376 9.98164 9.30076 10.2771 9.59101C10.5719 9.88201 10.5756 10.3568 10.2846 10.6523L8.25214 12.7148C8.11114 12.8573 7.91839 12.9383 7.71814 12.9383L7.71739 12.9375Z" fill="black"/>
<path d="M15.7499 7.50006H11.9999C11.5859 7.50006 11.2499 7.16406 11.2499 6.75006C11.2499 6.33606 11.5859 6.00006 11.9999 6.00006H15.7499C16.1639 6.00006 16.4999 6.33606 16.4999 6.75006C16.4999 7.16406 16.1639 7.50006 15.7499 7.50006Z" fill="black"/>
<path d="M7.71739 8.43751H7.70239C7.49689 8.43301 7.30114 8.34451 7.16239 8.19226L6.19489 7.12951C5.91589 6.82351 5.93839 6.34876 6.24514 6.06976C6.55114 5.79001 7.02589 5.81476 7.30489 6.12001L7.73914 6.59701L9.21589 5.09851C9.50689 4.80451 9.98164 4.80001 10.2771 5.09101C10.5719 5.38201 10.5756 5.85676 10.2846 6.15226L8.25214 8.21476C8.11114 8.35801 7.91839 8.43826 7.71814 8.43826L7.71739 8.43751Z" fill="black"/>
</svg>
