<svg width="24" height="24" viewBox="0 0 24 24" fill="none" xmlns="http://www.w3.org/2000/svg">
<path d="M21.854 12.1589L19.1831 11.7049C19.1166 11.6681 19.0433 11.6423 18.9658 11.6288L16.929 8.96138C16.3602 8.21654 15.5476 7.78496 14.625 7.73236V5.6326C14.625 5.24429 14.3102 4.92947 13.9219 4.92947H11.3907V4.08572C11.3907 3.69741 11.0759 3.3826 10.6875 3.3826H5.10938C4.72106 3.3826 4.40625 3.69741 4.40625 4.08572V7.72679H3.72656C2.84536 7.72679 2.09475 8.23515 1.7678 9.05344L0.0502031 13.3517C0.0170156 13.4347 0 13.5233 0 13.6126V17.8518C0 18.2401 0.314812 18.555 0.703125 18.555H2.87381C3.13209 19.7329 4.18313 20.6174 5.4375 20.6174C6.69187 20.6174 7.74291 19.7329 8.00119 18.555H15.9989C16.2571 19.7329 17.3082 20.6174 18.5625 20.6174C19.8169 20.6174 20.868 19.7329 21.1262 18.555H23.2969C23.6852 18.555 24 18.2401 24 17.8518V14.7006C24 13.4393 23.0975 12.3703 21.854 12.1589ZM15.8113 9.81483L17.1878 11.6175H11.3341V9.14818L14.4329 9.13304C15.0021 9.13304 15.4658 9.3624 15.8113 9.81483ZM6.03614 9.14822H9.92784V11.6175H5.18198L6.03614 9.14822ZM13.2188 6.33572V7.72679H11.3906V6.33572H13.2188ZM5.8125 4.78885H9.98438V7.72679H5.8125V4.78885ZM5.4375 19.2112C4.76545 19.2112 4.21875 18.6645 4.21875 17.9925C4.21875 17.3204 4.76545 16.7737 5.4375 16.7737C6.10955 16.7737 6.65625 17.3204 6.65625 17.9925C6.65625 18.6645 6.10955 19.2112 5.4375 19.2112ZM18.5625 19.2112C17.8905 19.2112 17.3438 18.6645 17.3438 17.9925C17.3438 17.3204 17.8905 16.7737 18.5625 16.7737C19.2345 16.7737 19.7812 17.3204 19.7812 17.9925C19.7812 18.6645 19.2345 19.2112 18.5625 19.2112ZM21.0476 17.1487C20.6953 16.114 19.7148 15.3674 18.5625 15.3674C17.4102 15.3674 16.4297 16.114 16.0774 17.1487H7.92258C7.57031 16.114 6.58978 15.3674 5.4375 15.3674C4.28522 15.3674 3.30469 16.114 2.95242 17.1487H1.40625V15.0862H1.45308C1.84139 15.0862 2.1562 14.7714 2.1562 14.3831C2.1562 13.9948 1.84139 13.68 1.45308 13.68H1.43339L3.07359 9.5753C3.18427 9.29841 3.42834 9.13304 3.72656 9.13304H4.55339L3.5303 12.0908C3.45595 12.3057 3.49017 12.5432 3.62208 12.7285C3.75398 12.9137 3.96736 13.0237 4.1948 13.0237H18.5503L21.6183 13.5453C22.0667 13.6215 22.4085 13.9283 22.5373 14.3362H22.5234C22.1351 14.3362 21.8203 14.651 21.8203 15.0393C21.8203 15.4276 22.1351 15.7424 22.5234 15.7424H22.5938V17.1487H21.0476Z" fill="#8E8E8E"/>
</svg>
