<svg width="20" height="24" viewBox="0 0 20 24" fill="none" xmlns="http://www.w3.org/2000/svg">
<path d="M1.81336 9.69212C2.05799 7.61607 3.05152 5.70775 4.61158 4.31725C4.92067 4.04149 4.94776 3.56761 4.67237 3.25816C4.39661 2.94871 3.92274 2.92162 3.61329 3.19738C1.77637 4.83471 0.60743 7.08287 0.322513 9.52807C0.31922 9.55699 0.317383 9.58593 0.317383 9.61486V9.62254C0.317383 10.0367 0.653195 10.3689 1.06738 10.3689C1.45558 10.3689 1.77491 10.0704 1.81336 9.69212Z" fill="black"/>
<path d="M19.7013 9.53392C19.4494 7.12241 18.2601 4.72877 16.4036 3.14867C16.0882 2.88023 15.6147 2.91869 15.3463 3.23399C15.0779 3.5493 15.116 4.02281 15.4316 4.29124C16.9919 5.61806 18.0014 7.58135 18.2049 9.61485C18.2049 10.029 18.5408 10.3648 18.9549 10.3649C19.3794 10.3649 19.7461 9.96292 19.7013 9.53392Z" fill="black"/>
<path d="M18.1336 17.2218C17.2283 15.6383 16.75 13.8369 16.75 12.0124C16.75 12.0124 16.75 10.5011 16.75 10.5C16.75 7.58985 14.7483 4.90612 11.9741 4.05693C12.1444 3.74034 12.25 3.38402 12.25 3C12.25 1.75927 11.2408 0.75 10 0.75C8.7593 0.75 7.75003 1.75927 7.75003 3C7.75003 3.38425 7.85582 3.74075 8.02629 4.05748C5.25586 4.93186 3.25003 7.60927 3.25003 10.7303V12.0124C3.25003 13.8369 2.77175 15.6383 1.86612 17.2222C1.38161 18.0695 1.10258 18.9553 1.63871 19.879C2.04556 20.5811 2.77322 21 3.58475 21H7.00003C7.00003 22.6542 8.34585 24 10 24C11.6542 24 13 22.6542 13 21H16.4153C17.2268 21 17.9545 20.5811 18.3613 19.879C18.8792 18.9856 18.6115 18.0588 18.1336 17.2218ZM10 2.25C10.4135 2.25 10.75 2.58655 10.75 3C10.75 3.41345 10.4135 3.75 10 3.75C9.58658 3.75 9.25003 3.41345 9.25003 3C9.25003 2.58655 9.58658 2.25 10 2.25ZM10 22.5C9.17276 22.5 8.50003 21.8273 8.50003 21H11.5C11.5 21.8273 10.8273 22.5 10 22.5ZM17.0642 19.1265C16.999 19.2385 16.8053 19.5 16.4153 19.5H3.58475C3.19479 19.5 3.00106 19.2386 2.93585 19.1265C2.69871 18.7189 2.96626 18.321 3.16873 17.9659C4.20328 16.1565 4.75003 14.0977 4.75003 12.0124C4.75003 12.0124 4.75003 10.731 4.75003 10.7303C4.75003 7.89772 7.07082 5.25041 9.99155 5.25037C12.8215 5.25033 15.25 7.67938 15.25 10.5V12.0124C15.25 14.0976 15.7968 16.1564 16.8309 17.9655C17.0413 18.3336 17.3076 18.7044 17.0642 19.1265Z" fill="black"/>
</svg>
