<svg width="22" height="22" viewBox="0 0 22 22" fill="none" xmlns="http://www.w3.org/2000/svg">
<g clip-path="url(#clip0_2_677)">
<path d="M11 1.28906C13.2406 1.28997 15.412 2.06545 17.1463 3.48411C18.8806 4.90278 20.0711 6.87739 20.5161 9.07336C20.9611 11.2693 20.6333 13.5516 19.5881 15.5336C18.5429 17.5155 16.8447 19.0751 14.7812 19.9482C12.408 20.9511 9.73363 20.9701 7.34639 20.0011C4.95914 19.0321 3.05461 17.1545 2.05176 14.7812C1.04891 12.408 1.02989 9.73363 1.99889 7.34639C2.96789 4.95914 4.84553 3.05461 7.21875 2.05176C8.41496 1.54554 9.70109 1.28613 11 1.28906ZM11 0C4.92508 0 0 4.92508 0 11C0 17.0749 4.92508 22 11 22C17.0749 22 22 17.0749 22 11C22 4.92508 17.0749 0 11 0Z" fill="#575756"/>
<path d="M14.2093 16.9241C13.5704 16.8811 12.6698 16.6607 11.7906 16.3462C8.69085 15.2367 5.66628 12.2809 5.02347 8.14644C4.90917 7.41038 5.02948 6.73792 5.58722 6.1905C5.77413 6.00745 5.94042 5.80378 6.12304 5.61644C6.81054 4.90874 7.81515 4.8907 8.52714 5.57046C8.75273 5.78531 8.98218 5.99714 9.20218 6.21886C9.50343 6.51594 9.67786 6.9182 9.68884 7.34116C9.69981 7.76411 9.54649 8.17487 9.26105 8.48718C9.08917 8.67796 8.9087 8.85929 8.72737 9.04019C8.52929 9.23785 8.28308 9.35128 8.01882 9.43378C7.69269 9.53605 7.6321 9.67269 7.78034 9.98421C8.71706 11.9462 10.1833 13.3588 12.1791 14.2222C12.4459 14.3374 12.5692 14.2854 12.6766 14.0207C12.9121 13.4402 13.3439 13.0169 13.8402 12.6749C14.4018 12.2882 15.2062 12.3741 15.7382 12.8313C16.0298 13.0819 16.3084 13.3472 16.573 13.6262C16.8577 13.9308 17.0159 14.3323 17.0155 14.7492C17.0151 15.1662 16.8562 15.5673 16.5709 15.8714C16.488 15.9616 16.4025 16.0497 16.323 16.1425C15.8443 16.6989 15.2371 16.9593 14.2093 16.9241Z" fill="#575756"/>
</g>
<defs>
<clipPath id="clip0_2_677">
<rect width="22" height="22" fill="white"/>
</clipPath>
</defs>
</svg>
