<svg width="24" height="24" viewBox="0 0 24 24" fill="none" xmlns="http://www.w3.org/2000/svg">
<path d="M12.7163 8.21626L13.6088 8.47876C13.6784 8.49791 13.7503 8.50799 13.8225 8.50876C14.003 8.50876 14.1775 8.44363 14.3139 8.32535C14.4503 8.20706 14.5394 8.04354 14.565 7.86482C14.5905 7.6861 14.5507 7.50417 14.4529 7.35242C14.3551 7.20068 14.2058 7.08931 14.0325 7.03876L13.125 6.77626C12.934 6.72006 12.7286 6.74203 12.5538 6.83732C12.3791 6.93261 12.2493 7.09343 12.1931 7.28438C12.1369 7.47534 12.1589 7.68079 12.2542 7.85555C12.3495 8.03032 12.5103 8.16006 12.7013 8.21626H12.7163Z" fill="#8E8E8E"/>
<path d="M16.08 9.20249L16.9725 9.46499C17.0418 9.48596 17.1139 9.49608 17.1863 9.49499C17.3668 9.49499 17.5413 9.42987 17.6777 9.31158C17.814 9.19329 17.9032 9.02978 17.9287 8.85106C17.9542 8.67234 17.9145 8.4904 17.8166 8.33866C17.7188 8.18691 17.5696 8.07554 17.3962 8.02499L16.5 7.76249C16.4054 7.73467 16.3063 7.72574 16.2083 7.73622C16.1103 7.74669 16.0154 7.77637 15.9288 7.82356C15.8423 7.87074 15.7659 7.93451 15.704 8.01121C15.6421 8.08792 15.5959 8.17606 15.5681 8.27062C15.5403 8.36517 15.5314 8.46427 15.5419 8.56228C15.5523 8.66028 15.582 8.75526 15.6292 8.84179C15.6764 8.92832 15.7401 9.00471 15.8168 9.0666C15.8936 9.12849 15.9817 9.17467 16.0762 9.20249H16.08Z" fill="#8E8E8E"/>
<path d="M1.76255 9.19126C1.91132 9.32124 2.10537 9.38727 2.30255 9.37501C2.37576 9.37045 2.44915 9.38045 2.51847 9.40443C2.5878 9.4284 2.65168 9.46589 2.70643 9.51471C2.76118 9.56353 2.8057 9.62272 2.83744 9.68885C2.86917 9.75499 2.88747 9.82676 2.8913 9.90001C2.89501 9.97441 2.884 10.0488 2.8589 10.119C2.8338 10.1891 2.79511 10.2536 2.74505 10.3088C2.64835 10.4154 2.51376 10.48 2.37005 10.4888C2.27119 10.4931 2.17417 10.5169 2.08457 10.5589C1.99497 10.6009 1.91457 10.6602 1.84799 10.7334C1.78141 10.8066 1.72997 10.8923 1.69665 10.9854C1.66332 11.0786 1.64876 11.1774 1.6538 11.2763L2.17505 21.6938C2.20394 22.3143 2.47045 22.8999 2.91935 23.3292C3.36825 23.7586 3.96513 23.9988 4.5863 24H4.7063L12.7013 23.595C13.037 23.5779 13.3654 23.4911 13.6656 23.34C13.9659 23.1889 14.2313 22.9769 14.445 22.7175L14.91 22.8525C15.1302 22.9191 15.3588 22.9532 15.5888 22.9538C16.111 22.9523 16.6188 22.7821 17.0364 22.4685C17.4541 22.155 17.7592 21.7148 17.9063 21.2138L20.8463 11.22C20.902 11.0291 20.8796 10.8238 20.7839 10.6494C20.6883 10.475 20.5273 10.3457 20.3363 10.29C20.1945 10.2467 20.0755 10.1491 20.0053 10.0184C19.935 9.88781 19.9192 9.73473 19.9613 9.59251C20.0038 9.45096 20.1007 9.33202 20.2307 9.26173C20.3608 9.19145 20.5133 9.17555 20.655 9.21751C20.7499 9.24588 20.8494 9.25518 20.9479 9.24488C21.0464 9.23458 21.1419 9.20489 21.2288 9.15751C21.4073 9.06344 21.5419 8.90327 21.6038 8.71126L22.5825 5.37751C22.6723 5.07317 22.7012 4.75413 22.6676 4.43862C22.634 4.12311 22.5385 3.81732 22.3867 3.53871C22.2349 3.2601 22.0296 3.01415 21.7827 2.81491C21.5357 2.61566 21.252 2.46703 20.9475 2.37751L18.7875 1.74001C18.6918 1.70957 18.5909 1.69868 18.4909 1.70798C18.3908 1.71728 18.2937 1.74658 18.2052 1.79415C18.1167 1.84172 18.0387 1.90659 17.9757 1.98489C17.9128 2.0632 17.8662 2.15336 17.8388 2.25001C17.7641 2.50449 17.5915 2.71893 17.3588 2.84626C17.129 2.97043 16.8594 2.99873 16.6088 2.92501C16.3543 2.85021 16.1399 2.6775 16.0127 2.44478C15.8854 2.21206 15.8557 1.93836 15.93 1.68376C15.958 1.58823 15.9666 1.48809 15.9555 1.38918C15.9443 1.29027 15.9136 1.19458 15.8651 1.10767C15.8166 1.02076 15.7512 0.944374 15.6729 0.882969C15.5946 0.821564 15.5048 0.776366 15.4088 0.75001L13.2488 0.10876C12.9445 0.0190088 12.6254 -0.00989013 12.3099 0.0237147C11.9944 0.0573195 11.6886 0.152769 11.41 0.304609C11.1314 0.456449 10.8854 0.661702 10.6862 0.908639C10.487 1.15558 10.3383 1.43936 10.2488 1.74376L10.0725 2.34376L9.37505 2.37751C9.17657 2.38818 8.99044 2.47719 8.85755 2.62501C8.79072 2.69825 8.73907 2.78402 8.7056 2.87736C8.67213 2.97069 8.65749 3.06974 8.66255 3.16876C8.66558 3.42787 8.56804 3.67807 8.39043 3.86675C8.21282 4.05544 7.96897 4.16791 7.71015 4.18054C7.45133 4.19316 7.19769 4.10495 7.00256 3.93445C6.80743 3.76395 6.686 3.52444 6.6638 3.26626C6.659 3.16773 6.6348 3.07111 6.5926 2.98194C6.5504 2.89278 6.49102 2.81281 6.41787 2.74662C6.34472 2.68044 6.25923 2.62934 6.1663 2.59624C6.07337 2.56315 5.97482 2.54871 5.8763 2.55376L3.6263 2.67001C2.98722 2.70301 2.38726 2.98792 1.95782 3.46235C1.52837 3.93678 1.30443 4.56206 1.33505 5.20126L1.50005 8.67376C1.50724 8.77313 1.53415 8.87007 1.57922 8.95893C1.62429 9.04778 1.68661 9.12676 1.76255 9.19126ZM12.825 1.54876L14.3775 2.00251C14.3873 2.53482 14.5667 3.05011 14.8896 3.47341C15.2125 3.89672 15.662 4.20596 16.1728 4.35614C16.6836 4.50632 17.229 4.4896 17.7296 4.30842C18.2302 4.12724 18.6599 3.79105 18.9563 3.34876L20.505 3.80251C20.737 3.87145 20.9324 4.02911 21.0488 4.24126C21.107 4.34673 21.1435 4.46272 21.1564 4.58247C21.1693 4.70222 21.1582 4.82334 21.1238 4.93876L20.3175 7.68751C20.0334 7.71094 19.7574 7.794 19.5075 7.93126C19.27 8.06046 19.0602 8.23528 18.8903 8.44571C18.7204 8.65613 18.5938 8.89803 18.5175 9.15751C18.4414 9.41645 18.4171 9.68786 18.4461 9.9562C18.475 10.2245 18.5567 10.4845 18.6863 10.7213C18.8225 10.9716 19.0089 11.1912 19.2338 11.3663L16.47 20.7788C16.4012 21.0091 16.2449 21.2032 16.0346 21.3196C15.8243 21.436 15.5767 21.4653 15.345 21.4013L7.66505 19.1513C7.43544 19.0817 7.24217 18.925 7.12655 18.7148C7.01092 18.5046 6.98212 18.2574 7.0463 18.0263L9.8138 8.61751C10.0978 8.59098 10.3735 8.50676 10.6238 8.37001C10.9264 8.20508 11.1828 7.96683 11.3694 7.67709C11.556 7.38736 11.6669 7.05542 11.6919 6.7117C11.7169 6.36797 11.6552 6.02348 11.5125 5.70978C11.3698 5.39609 11.1506 5.12325 10.875 4.91626L11.685 2.16751C11.7186 2.05159 11.7748 1.94349 11.8504 1.84948C11.9261 1.75546 12.0197 1.67741 12.1257 1.61985C12.2318 1.56229 12.3482 1.52636 12.4683 1.51416C12.5883 1.50195 12.7096 1.51372 12.825 1.54876ZM3.70505 4.17376L5.31755 4.09126C5.46341 4.46852 5.69742 4.8054 6.00005 5.07376C6.44717 5.47715 7.02482 5.70568 7.6269 5.7174C8.22898 5.72911 8.81508 5.52321 9.27755 5.13751C9.24087 5.31789 9.27181 5.50545 9.36447 5.6645C9.45713 5.82354 9.60504 5.94296 9.78005 6.00001C9.88649 6.03071 9.9814 6.09236 10.0527 6.17712C10.1241 6.26189 10.1686 6.36594 10.1806 6.47606C10.1927 6.58618 10.1717 6.6974 10.1204 6.79559C10.0691 6.89378 9.98982 6.9745 9.89255 7.02751C9.76201 7.09938 9.60841 7.11689 9.46505 7.07626C9.27459 7.02042 9.06977 7.04235 8.89545 7.13724C8.72113 7.23213 8.59153 7.39225 8.53505 7.58251L5.59505 17.5875C5.41586 18.2021 5.48725 18.8627 5.79361 19.4248C6.09998 19.987 6.61641 20.405 7.23005 20.5875L12.375 22.0875L4.6313 22.5C4.5105 22.5055 4.38981 22.4871 4.2762 22.4457C4.16258 22.4043 4.0583 22.3408 3.96938 22.2588C3.88046 22.1769 3.80867 22.0781 3.75815 21.9683C3.70762 21.8584 3.67938 21.7396 3.67505 21.6188L3.1763 11.8238C3.43515 11.7053 3.66732 11.5356 3.8588 11.325C4.08948 11.0728 4.2536 10.767 4.33629 10.4353C4.41898 10.1036 4.41763 9.75656 4.33237 9.42554C4.2471 9.09453 4.08061 8.79001 3.84797 8.53956C3.61533 8.28912 3.32389 8.10066 3.00005 7.99126L2.8538 5.12626C2.84147 4.88696 2.92388 4.65244 3.08321 4.47346C3.24253 4.29449 3.46593 4.18547 3.70505 4.17001V4.17376Z" fill="#8E8E8E"/>
<path d="M5.76752 10.5H5.80502L6.75002 10.4513C6.94893 10.4408 7.13555 10.3518 7.26882 10.2037C7.40209 10.0557 7.47109 9.8608 7.46065 9.66188C7.4502 9.46297 7.36117 9.27636 7.21313 9.14309C7.0651 9.00982 6.87018 8.94082 6.67127 8.95126L5.73002 9.00001C5.53111 9.00498 5.34232 9.08877 5.20518 9.23294C5.06805 9.37711 4.9938 9.56985 4.99877 9.76876C5.00374 9.96767 5.08753 10.1565 5.2317 10.2936C5.37587 10.4307 5.56861 10.505 5.76752 10.5Z" fill="#8E8E8E"/>
</svg>
