<svg width="173" height="47" viewBox="0 0 173 47" fill="none" xmlns="http://www.w3.org/2000/svg">
<g clip-path="url(#clip0_1347_12817)">
<rect x="0.2146" y="0.214355" width="46.2857" height="46.2857" rx="23.1429" fill="#FEFA17"/>
<g clip-path="url(#clip1_1347_12817)">
<path d="M46.5002 46.4998H1.66089C3.62704 45.5294 5.51154 44.3948 7.29522 43.1076C10.6515 40.6857 15.2076 38.256 20.4471 37.7902C29.3542 36.9984 40.3875 43.5501 46.5002 46.4998Z" fill="black"/>
<path d="M24.0766 31.4018C22.1782 26.8452 18.7612 24.8657 16.954 24.6872C16.4362 24.653 15.917 24.7277 15.4286 24.9066C14.9401 25.0855 14.4927 25.3648 14.114 25.7274C14.3992 25.374 14.7088 25.0419 15.0404 24.7338C14.562 24.2913 14.0001 23.8644 14.0001 23.8644C14.5013 24.105 15.048 24.4233 15.2454 24.5475C15.7643 24.0848 16.3178 23.6644 16.9008 23.2899C16.4017 22.8774 15.8766 22.4988 15.329 22.1566C16.0158 22.3891 16.6795 22.688 17.3108 23.0493C18.0939 22.5908 18.9085 22.1913 19.7483 21.8538C19.4212 21.5756 19.0789 21.3164 18.7232 21.0776C19.2146 21.2545 19.6918 21.4699 20.1508 21.7219C21.0548 21.3716 21.9807 21.0838 22.9224 20.8602C18.26 19.5328 14.6152 21.0155 13.3395 22.3584C12.8214 22.9123 12.4936 23.6234 12.4055 24.3845C11.8492 23.0888 10.8767 22.0262 9.64906 21.3726C6.86986 20.1849 4.09066 22.5137 4.09066 22.5137C5.24566 22.2854 6.44143 22.4263 7.5153 22.9173L8.54801 22.2265L7.84941 23.0726C8.94277 23.6496 9.93152 24.4136 10.7729 25.3315C10.0734 24.8934 9.24567 24.7203 8.43411 24.8424C6.63446 25.1452 3.36169 27.3653 1.77466 32.0461C2.47337 31.4019 3.21696 30.8103 3.99954 30.2763C4.06371 29.7525 4.16266 29.2338 4.29568 28.7237C4.28973 29.1645 4.31002 29.6052 4.35643 30.0434C5.10607 29.5254 5.89297 29.0661 6.7104 28.6694C6.7764 27.9328 6.91375 27.2047 7.12044 26.4959C7.07668 27.1523 7.07668 27.8111 7.12044 28.4676C7.74722 28.1879 8.39469 27.9595 9.05677 27.7845C9.05677 27.5438 9.12511 26.9073 9.21623 26.3484C9.21623 26.3484 9.21623 27.0625 9.32254 27.7146C9.57059 27.6577 9.82371 27.6111 10.0819 27.5749C9.17067 28.4909 8.25187 30.4703 8.33539 34.7242C8.33539 34.7242 8.87453 33.4589 9.56553 32.1393C9.43188 31.609 9.3605 31.0644 9.35292 30.5169C9.35292 30.5169 9.55034 31.1612 9.77055 31.7434C9.97558 31.3553 10.1958 30.9671 10.4084 30.6333L10.4616 30.5479C10.3856 30.1288 10.2489 29.2904 10.211 28.7082C10.211 28.7082 10.4312 29.4845 10.6894 30.1909C11.2076 29.374 11.8166 28.6212 12.5042 27.9475C16.7413 35.384 16.3009 46.2128 16.3009 46.2128L18.2904 46.0343C17.7437 35.7101 14.4633 29.5543 13.2408 27.5904C14.2274 27.4073 15.2383 27.4073 16.225 27.5904C16.225 26.9306 16.225 26.2164 16.225 26.2164C16.3541 26.7676 16.4452 27.4041 16.4756 27.637C17.1491 27.7649 17.8117 27.9466 18.4575 28.1804C18.4715 27.514 18.4411 26.8475 18.3663 26.1854C18.6201 26.879 18.8058 27.5967 18.9207 28.3278C19.7759 28.6544 20.6059 29.0463 21.4037 29.5C21.4285 29.0605 21.4285 28.6199 21.4037 28.1804C21.5703 28.6879 21.7023 29.2066 21.7986 29.7329C22.5961 30.2325 23.3574 30.7903 24.0766 31.4018Z" fill="black"/>
<path d="M12.5193 23.127C13.6128 16.2105 17.6373 12.3137 20.0672 11.4365C20.7652 11.2076 21.5019 11.1288 22.231 11.2049C22.9602 11.2811 23.6661 11.5106 24.3044 11.879C23.7955 11.5025 23.2599 11.1652 22.7021 10.8699C23.2109 10.0936 23.8412 9.31734 23.8412 9.31734C23.2337 9.82191 22.5958 10.4507 22.3604 10.6836C21.4978 10.2357 20.6014 9.85932 19.6799 9.55798C20.2233 8.81247 20.8144 8.10453 21.4492 7.4388C20.5823 7.98057 19.7708 8.6099 19.0269 9.31734C17.7966 8.96579 16.5429 8.70635 15.2757 8.54109C15.6295 8.03407 16.0097 7.54691 16.4148 7.08172C15.8042 7.50289 15.2231 7.96719 14.6759 8.47122C13.3437 8.30179 12.001 8.23433 10.6589 8.26939C16.6198 4.80728 22.1098 5.57578 24.2968 6.98857C25.1898 7.56934 25.8787 8.42581 26.2635 9.43378C26.7039 7.52419 27.524 5.48263 29.0351 4.34153C32.4066 1.77987 36.993 3.99997 36.993 3.99997C35.3345 4.08822 33.7432 4.69824 32.4369 5.74655L30.7892 5.1566L32.0345 6.08035C30.7249 7.24571 29.6205 8.63202 28.7693 10.179C29.5902 9.35635 30.6624 8.84667 31.8067 8.73515C34.3885 8.54109 39.6279 10.4352 43.3411 16.3037C42.161 15.6467 40.9381 15.0735 39.6811 14.5881C39.4249 13.8827 39.1178 13.1977 38.7623 12.5388C38.9152 13.142 39.0344 13.7537 39.1192 14.3708C37.9163 13.9241 36.6828 13.5686 35.4288 13.3073C35.0971 12.3179 34.667 11.3659 34.1455 10.4662C34.4114 11.3563 34.6169 12.2641 34.7605 13.1831C33.8073 13.0144 32.8424 12.9235 31.875 12.9114C31.7687 12.5932 31.4878 11.7315 31.1764 11.0018C31.1764 11.0018 31.3814 11.9954 31.4878 12.9114C31.1309 12.9114 30.7284 12.9114 30.4171 12.9735C31.9358 13.9206 33.8873 16.3114 35.1782 22.1799C35.1782 22.1799 34.0164 20.6274 32.6344 19.0749C32.6454 18.291 32.5613 17.5088 32.3838 16.7461C32.3838 16.7461 32.3306 17.7009 32.2243 18.5781C31.8143 18.1201 31.389 17.6699 30.979 17.274L30.8803 17.1808C30.8803 16.5754 30.7512 15.3877 30.6069 14.5726C30.6069 14.5726 30.6069 15.7215 30.4399 16.7772C29.4737 15.8545 28.406 15.0496 27.2582 14.3786C23.9247 26.0224 28.1011 40.7713 28.1011 40.7713L25.3067 41.2216C22.649 26.8841 25.1017 17.2662 26.1268 14.1379C24.7133 14.2194 23.3251 14.5558 22.0263 15.1315C21.753 14.2466 21.5479 13.253 21.5479 13.253C21.5547 13.9352 21.5952 14.6166 21.6694 15.2945C20.785 15.6993 19.9343 16.177 19.1256 16.7229C18.8964 15.8195 18.7264 14.9014 18.6169 13.9749C18.5023 15.0059 18.487 16.0459 18.5713 17.0799C17.5283 17.8383 16.541 18.6737 15.6175 19.5795C15.4505 18.9795 15.3162 18.3705 15.215 17.7553C15.1639 18.5073 15.1639 19.2621 15.215 20.0142C14.2431 20.9829 13.3421 22.0233 12.5193 23.127Z" fill="black"/>
</g>
</g>
<path d="M60.4634 34.1428V18.5342H54.472V15.6285H69.5534V18.5342H63.562V34.1428H60.4634ZM70.3285 34.1428V20.2571H73.067V23.6385L72.7327 23.2014C72.9042 22.7385 73.1313 22.3185 73.4142 21.9414C73.7056 21.5557 74.0527 21.2385 74.4556 20.99C74.7985 20.7585 75.1756 20.5785 75.587 20.45C76.007 20.3128 76.4356 20.2314 76.8727 20.2057C77.3099 20.1714 77.7342 20.1885 78.1456 20.2571V23.15C77.7342 23.03 77.2585 22.9914 76.7185 23.0343C76.187 23.0771 75.707 23.2271 75.2785 23.4843C74.8499 23.7157 74.4985 24.0114 74.2242 24.3714C73.9585 24.7314 73.7613 25.1428 73.6327 25.6057C73.5042 26.06 73.4399 26.5528 73.4399 27.0843V34.1428H70.3285ZM84.1555 34.5285C83.1527 34.5285 82.3041 34.34 81.6098 33.9628C80.9155 33.5771 80.3884 33.0671 80.0284 32.4328C79.6769 31.7985 79.5012 31.1 79.5012 30.3371C79.5012 29.6685 79.6127 29.0685 79.8355 28.5371C80.0584 27.9971 80.4012 27.5343 80.8641 27.1485C81.3269 26.7543 81.9269 26.4328 82.6641 26.1843C83.2212 26.0043 83.8727 25.8414 84.6184 25.6957C85.3727 25.55 86.1869 25.4171 87.0612 25.2971C87.9441 25.1685 88.8655 25.0314 89.8255 24.8857L88.7198 25.5157C88.7284 24.5557 88.5141 23.8485 88.0769 23.3943C87.6398 22.94 86.9027 22.7128 85.8655 22.7128C85.2398 22.7128 84.6355 22.8585 84.0527 23.15C83.4698 23.4414 83.0627 23.9428 82.8312 24.6543L80.0027 23.7671C80.3455 22.5928 80.9969 21.65 81.9569 20.9385C82.9255 20.2271 84.2284 19.8714 85.8655 19.8714C87.0998 19.8714 88.1841 20.0728 89.1184 20.4757C90.0612 20.8785 90.7598 21.5385 91.2141 22.4557C91.4627 22.9443 91.6127 23.4457 91.6641 23.96C91.7155 24.4657 91.7412 25.0185 91.7412 25.6185V34.1428H89.0284V31.1343L89.4784 31.6228C88.8527 32.6257 88.1198 33.3628 87.2798 33.8343C86.4484 34.2971 85.4069 34.5285 84.1555 34.5285ZM84.7727 32.06C85.4755 32.06 86.0755 31.9357 86.5727 31.6871C87.0698 31.4385 87.4641 31.1343 87.7555 30.7743C88.0555 30.4143 88.2569 30.0757 88.3598 29.7585C88.5227 29.3643 88.6127 28.9143 88.6298 28.4085C88.6555 27.8943 88.6684 27.4785 88.6684 27.1614L89.6198 27.4443C88.6855 27.59 87.8841 27.7185 87.2155 27.83C86.5469 27.9414 85.9727 28.0485 85.4927 28.1514C85.0127 28.2457 84.5884 28.3528 84.2198 28.4728C83.8598 28.6014 83.5555 28.7514 83.3069 28.9228C83.0584 29.0943 82.8655 29.2914 82.7284 29.5143C82.5998 29.7371 82.5355 29.9985 82.5355 30.2985C82.5355 30.6414 82.6212 30.9457 82.7927 31.2114C82.9641 31.4685 83.2127 31.6743 83.5384 31.8285C83.8727 31.9828 84.2841 32.06 84.7727 32.06ZM98.3406 34.1428L93.3006 20.2571H96.3991L99.8963 30.3243L103.381 20.2571H106.492L101.452 34.1428H98.3406ZM109.057 18.1485V15.3071H112.155V18.1485H109.057ZM109.057 34.1428V20.2571H112.155V34.1428H109.057ZM116.264 34.1428V15.2428H119.362V34.1428H116.264ZM127.096 34.5285C126.094 34.5285 125.245 34.34 124.551 33.9628C123.856 33.5771 123.329 33.0671 122.969 32.4328C122.618 31.7985 122.442 31.1 122.442 30.3371C122.442 29.6685 122.554 29.0685 122.776 28.5371C122.999 27.9971 123.342 27.5343 123.805 27.1485C124.268 26.7543 124.868 26.4328 125.605 26.1843C126.162 26.0043 126.814 25.8414 127.559 25.6957C128.314 25.55 129.128 25.4171 130.002 25.2971C130.885 25.1685 131.806 25.0314 132.766 24.8857L131.661 25.5157C131.669 24.5557 131.455 23.8485 131.018 23.3943C130.581 22.94 129.844 22.7128 128.806 22.7128C128.181 22.7128 127.576 22.8585 126.994 23.15C126.411 23.4414 126.004 23.9428 125.772 24.6543L122.944 23.7671C123.286 22.5928 123.938 21.65 124.898 20.9385C125.866 20.2271 127.169 19.8714 128.806 19.8714C130.041 19.8714 131.125 20.0728 132.059 20.4757C133.002 20.8785 133.701 21.5385 134.155 22.4557C134.404 22.9443 134.554 23.4457 134.605 23.96C134.656 24.4657 134.682 25.0185 134.682 25.6185V34.1428H131.969V31.1343L132.419 31.6228C131.794 32.6257 131.061 33.3628 130.221 33.8343C129.389 34.2971 128.348 34.5285 127.096 34.5285ZM127.714 32.06C128.416 32.06 129.016 31.9357 129.514 31.6871C130.011 31.4385 130.405 31.1343 130.696 30.7743C130.996 30.4143 131.198 30.0757 131.301 29.7585C131.464 29.3643 131.554 28.9143 131.571 28.4085C131.596 27.8943 131.609 27.4785 131.609 27.1614L132.561 27.4443C131.626 27.59 130.825 27.7185 130.156 27.83C129.488 27.9414 128.914 28.0485 128.434 28.1514C127.954 28.2457 127.529 28.3528 127.161 28.4728C126.801 28.6014 126.496 28.7514 126.248 28.9228C125.999 29.0943 125.806 29.2914 125.669 29.5143C125.541 29.7371 125.476 29.9985 125.476 30.2985C125.476 30.6414 125.562 30.9457 125.734 31.2114C125.905 31.4685 126.154 31.6743 126.479 31.8285C126.814 31.9828 127.225 32.06 127.714 32.06Z" fill="white"/>
<defs>
<clipPath id="clip0_1347_12817">
<rect x="0.2146" y="0.214355" width="46.2857" height="46.2857" rx="23.1429" fill="white"/>
</clipPath>
<clipPath id="clip1_1347_12817">
<rect width="44.8393" height="43.3929" fill="white" transform="translate(1.66113 3.10718)"/>
</clipPath>
</defs>
</svg>
