<svg width="36" height="35" viewBox="0 0 36 35" fill="none" xmlns="http://www.w3.org/2000/svg">
<g clip-path="url(#clip0_3_25761)">
<mask id="mask0_3_25761" style="mask-type:luminance" maskUnits="userSpaceOnUse" x="0" y="0" width="36" height="34">
<path d="M33.2954 24.8422C31.7763 28.4464 28.9668 31.1029 24.867 32.8116C20.7671 34.5204 16.9612 34.2619 13.4494 32.0362C9.93757 29.8105 6.54007 27.154 3.25691 24.0667C-0.0262437 20.9795 -0.352926 17.605 2.27687 13.9433C4.90666 10.2817 8.30416 6.89284 12.4694 3.77684C16.6346 0.660845 21.543 0.00748992 27.1946 1.81678C32.8462 3.62607 35.6556 7.0149 35.623 11.9833C35.5903 16.9516 34.8144 21.2379 33.2954 24.8422Z" fill="white"/>
</mask>
<g mask="url(#mask0_3_25761)">
<path d="M33.2954 24.8422C31.7763 28.4464 28.9668 31.1029 24.867 32.8116C20.7671 34.5204 16.9612 34.2619 13.4494 32.0362C9.93757 29.8105 6.54007 27.154 3.25691 24.0667C-0.0262437 20.9795 -0.352926 17.605 2.27687 13.9433C4.90666 10.2817 8.30416 6.89284 12.4694 3.77684C16.6346 0.660845 21.543 0.00748992 27.1946 1.81678C32.8462 3.62607 35.6556 7.0149 35.623 11.9833C35.5903 16.9516 34.8144 21.2379 33.2954 24.8422Z" fill="#171717"/>
</g>
</g>
<g clip-path="url(#clip1_3_25761)">
<path d="M26.1474 16.1908H24.6809C24.6365 16.1908 24.5926 16.1927 24.5489 16.1955C24.2195 15.9016 23.8551 15.6588 23.4653 15.4719C24.3542 14.8405 24.9353 13.8029 24.9353 12.6321C24.9353 10.7128 23.3739 9.15137 21.4546 9.15137C19.5352 9.15137 17.9737 10.7128 17.9737 12.6321C17.9737 13.5544 18.3346 14.3941 18.9222 15.0175H16.3609C16.9485 14.3941 17.3092 13.5544 17.3092 12.6321C17.3092 10.7128 15.7478 9.15137 13.8285 9.15137C11.9092 9.15137 10.3477 10.7128 10.3477 12.6321C10.3477 13.7085 10.8389 14.6722 11.6087 15.3113C11.0756 15.5105 10.581 15.8084 10.1473 16.1955C10.1036 16.1927 10.0598 16.1908 10.0155 16.1908H8.54889C8.24639 16.1908 8.00122 16.436 8.00122 16.7385V19.6715C8.00122 19.974 8.24639 20.2192 8.54889 20.2192H8.58783V24.3645C8.58783 24.6669 8.833 24.9122 9.1355 24.9122H25.5608C25.8633 24.9122 26.1085 24.6669 26.1085 24.3645V20.2192H26.1474C26.4499 20.2192 26.6951 19.974 26.6951 19.6715V16.7385C26.6951 16.436 26.4499 16.1908 26.1474 16.1908ZM25.5998 19.1239H24.6809C24.1743 19.1239 23.7619 18.7117 23.7619 18.2049C23.7619 17.6983 24.1743 17.2862 24.6809 17.2862H25.5998V19.1239ZM19.0691 12.6321C19.0691 11.3168 20.1392 10.2467 21.4544 10.2467C22.7697 10.2467 23.8399 11.3168 23.8399 12.6321C23.8399 13.9475 22.7698 15.0175 21.4546 15.0175C20.1392 15.0175 19.0691 13.9475 19.0691 12.6321ZM13.8285 10.2467C15.1438 10.2467 16.2139 11.3168 16.2139 12.6321C16.2139 13.9474 15.1438 15.0175 13.8285 15.0175C12.5131 15.0175 11.443 13.9475 11.443 12.6321C11.443 11.3168 12.5131 10.2467 13.8285 10.2467ZM9.09657 17.2862H10.0155C10.5221 17.2862 10.9344 17.6983 10.9344 18.2051C10.9344 18.7117 10.5221 19.1239 10.0155 19.1239H9.09657V17.2862ZM9.68318 20.2192H10.0155C11.1261 20.2192 12.0298 19.3157 12.0298 18.2049C12.0298 17.5899 11.7522 17.0387 11.3164 16.669H11.3293C11.8954 16.3069 12.5538 16.1129 13.2419 16.1129H18.4589C17.4454 16.9673 16.8005 18.2454 16.8005 19.6715V23.8169H12.0296V21.4314C12.0296 21.129 11.7844 20.8837 11.4819 20.8837C11.1796 20.8837 10.9343 21.129 10.9343 21.4314V23.8167H9.68318V20.2192ZM25.0132 23.8167H23.7619V21.4314C23.7619 21.129 23.5168 20.8837 23.2143 20.8837C22.9119 20.8837 22.6666 21.129 22.6666 21.4314V23.8167H17.8958V19.6715C17.8958 17.7093 19.4922 16.1129 21.4546 16.1129C22.1459 16.1129 22.8069 16.3086 23.3744 16.6737C22.9417 17.0436 22.6667 17.5925 22.6667 18.2051C22.6667 19.3157 23.5702 20.2192 24.681 20.2192H25.0132V23.8167Z" fill="#F2F2F2"/>
</g>
<defs>
<clipPath id="clip0_3_25761">
<rect width="35.2653" height="33.2785" fill="white" transform="translate(0.367432 0.755127)"/>
</clipPath>
<clipPath id="clip1_3_25761">
<rect width="18.6939" height="18.6939" fill="white" transform="translate(8.00122 7.6543)"/>
</clipPath>
</defs>
</svg>
