<svg width="28" height="28" viewBox="0 0 28 28" fill="none" xmlns="http://www.w3.org/2000/svg">
<path d="M27.9944 14.8619C27.9609 14.0865 27.2022 13.4672 25.735 13.0209C24.5969 12.6806 23.152 12.4742 21.59 12.4407V6.48815C21.5844 6.38773 21.5565 6.29289 21.5063 6.2092C21.3501 5.53417 20.5969 4.98745 19.2636 4.58577C18.0084 4.20642 16.3682 4 14.6444 4C12.9261 4 11.3027 4.20642 10.0697 4.58577C9.05997 4.89819 7.84937 5.47838 7.84937 6.47699C7.84937 6.53835 7.85495 6.59972 7.86611 6.66109L7.92748 9.20502C4.30126 8.51325 0.803347 10.8954 0.117155 14.516C0.0390516 14.9289 0 15.3417 0 15.7601C0 19.4421 2.99582 22.4379 6.67782 22.4379C8.21199 22.4379 9.69596 21.9135 10.8842 20.9428C11.9275 21.1883 13.1548 21.3222 14.4547 21.3333C14.7392 22.8787 18.0865 23.5872 21.205 23.5872C22.9233 23.5872 24.5467 23.3752 25.7796 22.9902C26.7894 22.6778 28 22.0921 28 21.0934V14.9679C28 14.9344 28 14.8954 27.9944 14.8619ZM20.424 9.57322C20.424 9.64575 20.1562 10.0307 18.9456 10.3989C17.8131 10.7392 16.2455 10.94 14.6499 10.94C13.272 10.94 11.9219 10.795 10.8508 10.5216C10.834 10.516 10.8229 10.516 10.8061 10.5105C10.2762 10.0921 9.69038 9.75732 9.05997 9.52301L9.02092 7.94979C9.40586 8.14505 9.80753 8.30126 10.2259 8.41283C11.4365 8.7643 13.0042 8.95397 14.6499 8.95397C16.3682 8.95397 18.0139 8.74756 19.2692 8.3682C19.6876 8.24547 20.0948 8.08368 20.4798 7.88285V9.34449C20.4184 9.42259 20.424 9.49512 20.424 9.57322ZM10.4045 5.66248C11.5314 5.3166 13.0377 5.12134 14.6444 5.12134C16.2399 5.12134 17.8075 5.3166 18.94 5.66248C20.1506 6.03068 20.4184 6.41004 20.4184 6.48257C20.4184 6.56067 20.145 6.94561 18.9344 7.30823C17.802 7.64854 16.2399 7.84379 14.6444 7.84379C13.1046 7.84379 11.643 7.66527 10.5328 7.3417C9.33333 6.99582 8.99861 6.61646 8.97071 6.49372C8.97071 6.48257 8.96513 6.48257 8.96513 6.48257C8.97071 6.37657 9.22734 6.01953 10.4045 5.66248ZM10.4212 19.8773C8.15063 21.9414 4.6304 21.7796 2.56625 19.5091C0.502092 17.2385 0.663877 13.7183 2.93445 11.6541C3.95537 10.7225 5.29428 10.2092 6.67782 10.2092C7.2357 10.2092 7.78801 10.2929 8.32357 10.4547C10.2594 11.0572 11.7155 12.6639 12.1283 14.6444C12.2008 15.0126 12.2399 15.3919 12.2399 15.7657C12.2455 17.3333 11.5816 18.8229 10.4212 19.8773ZM11.8382 20C12.2901 19.4477 12.6527 18.8285 12.9093 18.1646C13.3835 18.2036 13.8745 18.2315 14.3877 18.2371V18.3375L14.4212 20.2287C13.5565 20.2176 12.6918 20.1395 11.8382 20ZM13.3278 15.1018C13.6513 15.1241 13.9916 15.1353 14.3375 15.1409L14.371 17.1158C13.9805 17.1102 13.5955 17.0934 13.2273 17.0656C13.311 16.636 13.3556 16.1953 13.3556 15.7601C13.3556 15.5425 13.3445 15.325 13.3278 15.1018ZM14.7001 14.0307C14.6834 14.0307 14.6611 14.0307 14.6444 14.0307C14.1088 14.0307 13.59 14.0084 13.1102 13.9749C12.8982 13.2273 12.5635 12.5244 12.1116 11.8996C12.9484 12.0056 13.7908 12.0614 14.6388 12.0614C16.3626 12.0614 18.0084 11.855 19.2636 11.4756C19.682 11.3529 20.0837 11.1911 20.4686 10.9958V12.4575C18.0753 12.5244 15.6151 13.0265 14.7001 14.0307ZM15.4365 14.9177C15.4365 14.9121 15.4365 14.9066 15.4421 14.8954C15.4923 14.7448 15.8884 14.3766 17.0432 14.053C18.1255 13.7462 19.537 13.5788 21.0209 13.5788H21.1158C22.7113 13.5788 24.2734 13.7629 25.4114 14.1088C26.5997 14.4658 26.8787 14.834 26.8842 14.9177V14.9233C26.8787 15.007 26.5997 15.3919 25.3612 15.7601C24.2176 16.1004 22.7113 16.2845 21.1213 16.2845C19.5816 16.2845 18.1199 16.106 17.0098 15.788C15.8103 15.4421 15.4812 15.0572 15.4477 14.94C15.4365 14.9177 15.4365 14.9177 15.4365 14.9177ZM25.4561 21.9303C24.3291 22.2817 22.8173 22.477 21.2106 22.477C19.5983 22.477 18.0921 22.2873 16.9763 21.947C15.7992 21.5844 15.5537 21.2106 15.5537 21.1269C15.5537 21.1213 15.5537 21.1213 15.5537 21.1158L15.5258 19.4979C15.9721 19.7155 16.4351 19.8828 16.9149 20.0056C18.0865 20.3124 19.576 20.4854 21.1046 20.4854C22.8285 20.4854 24.463 20.2789 25.7127 19.8996C26.1199 19.7768 26.5105 19.6151 26.8842 19.4254V21.099H26.8898C26.8898 21.1771 26.6332 21.5621 25.4561 21.9303ZM26.8954 17.8243H26.8898C26.8898 17.8801 26.8563 17.947 26.8563 18.0084C26.8563 18.0865 26.5941 18.4658 25.3891 18.834C24.2455 19.1799 22.7225 19.3696 21.1102 19.3696C18.0195 19.3696 15.9386 18.6722 15.5035 18.1311L15.4979 17.6625L15.4756 16.3794C15.8661 16.5746 16.2734 16.7308 16.6918 16.848C17.9024 17.1994 19.47 17.3891 21.1158 17.3891C22.8117 17.3891 24.4296 17.1883 25.6736 16.8201C26.0976 16.7029 26.5049 16.5411 26.8954 16.3403V17.8243Z" fill="black"/>
<path d="M9.13389 16.3612C8.87727 15.4519 8.04603 14.8271 7.10321 14.8271C6.55649 14.8271 6.11018 14.3863 6.11018 13.8396C6.11576 13.2873 6.55649 12.8466 7.10321 12.8466C7.64993 12.8466 8.09623 13.2929 8.09623 13.8396C8.09623 14.1464 8.34728 14.3975 8.65411 14.3975C8.96095 14.3975 9.21199 14.1464 9.21199 13.8396C9.21199 12.8968 8.58717 12.0656 7.67782 11.8089V11.5579C7.67782 11.251 7.42678 11 7.11994 11C6.81311 11 6.56206 11.251 6.56206 11.5579V11.7978C5.44073 12.099 4.77127 13.2538 5.07252 14.3752C5.31799 15.2957 6.14923 15.9372 7.10321 15.9372C7.64993 15.9372 8.09623 16.378 8.09623 16.9247C8.09623 17.4714 7.65551 17.9177 7.10879 17.9177C6.56206 17.9177 6.11576 17.477 6.11576 16.9303C6.11576 16.6234 5.86471 16.3724 5.55788 16.3724C5.25105 16.3724 5 16.6234 5 16.9303C5.00558 17.8842 5.64156 18.7155 6.56206 18.9665V19.4519C6.56206 19.7587 6.81311 20.0098 7.11994 20.0098C7.42678 20.0098 7.67782 19.7587 7.67782 19.4519V18.9609C8.79916 18.643 9.45188 17.4826 9.13389 16.3612Z" fill="black"/>
</svg>
