<svg width="24" height="24" viewBox="0 0 24 24" fill="none" xmlns="http://www.w3.org/2000/svg">
<g clip-path="url(#clip0_992_18635)">
<path d="M20 14.4204V10.4C20 8.82116 14.9716 8.39996 12 8.39996C9.0284 8.39996 4 8.82116 4 10.4V14.4204C1.73609 14.6289 0.00301005 16.5265 0 18.8C0 19.6836 0.716344 20.4 1.6 20.4V22.8C1.6 23.4627 2.13726 24 2.8 24H3.6C4.2305 23.9971 4.75123 23.5067 4.792 22.8776C5.1788 22.5104 7.8996 22 12 22C16.1004 22 18.8212 22.5104 19.2076 22.8764C19.2478 23.5062 19.7689 23.9972 20.4 24H21.2C21.8627 24 22.4 23.4627 22.4 22.8V20.4C23.2837 20.4 24 19.6836 24 18.8C23.997 16.5265 22.2639 14.6289 20 14.4204ZM12 9.19996C16.4352 9.19996 19.0356 9.98396 19.2 10.4084V14.4H18.3264C18.3738 14.2719 18.3987 14.1365 18.4 14V12C18.4 11.3372 17.8627 10.8 17.2 10.8H13.6C12.9373 10.8 12.4 11.3372 12.4 12V14C12.4013 14.1365 12.4262 14.2719 12.4736 14.4H11.5264C11.5738 14.2719 11.5987 14.1365 11.6 14V12C11.6 11.3372 11.0627 10.8 10.4 10.8H6.8C6.13726 10.8 5.6 11.3372 5.6 12V14C5.60133 14.1365 5.62622 14.2719 5.6736 14.4H4.8V10.4128C4.9456 9.98956 7.5492 9.19996 12 9.19996ZM13.2 14V12C13.2 11.779 13.3791 11.6 13.6 11.6H17.2C17.4209 11.6 17.6 11.779 17.6 12V14C17.6 14.2209 17.4209 14.4 17.2 14.4H13.6C13.3791 14.4 13.2 14.2209 13.2 14ZM6.4 14V12C6.4 11.779 6.57909 11.6 6.8 11.6H10.4C10.6209 11.6 10.8 11.779 10.8 12V14C10.8 14.2209 10.6209 14.4 10.4 14.4H6.8C6.57909 14.4 6.4 14.2209 6.4 14ZM3.6 23.2H2.8C2.57909 23.2 2.4 23.0209 2.4 22.8V20.4H4V22.8C4 23.0209 3.82091 23.2 3.6 23.2ZM4.8 22.008V20.4H19.2V22.008C17.3896 21.248 13.05 21.2 12 21.2C10.95 21.2 6.6104 21.248 4.8 22.008ZM21.6 22.8C21.6 23.0209 21.4209 23.2 21.2 23.2H20.4C20.1791 23.2 20 23.0209 20 22.8V20.4H21.6V22.8ZM22.4 19.6H1.6C1.15817 19.6 0.8 19.2418 0.8 18.8C0.802204 16.8127 2.41269 15.2022 4.4 15.2H19.6C21.5873 15.2022 23.1978 16.8127 23.2 18.8C23.2 19.2418 22.8418 19.6 22.4 19.6Z" fill="black"/>
<path d="M4.40001 15.9999C3.03265 15.9969 1.86434 16.9847 1.64001 18.3335C1.60336 18.5514 1.7502 18.7576 1.96801 18.7943C1.98967 18.7981 2.01162 18.8 2.03361 18.7999C2.22873 18.7997 2.39522 18.6588 2.42761 18.4663C2.5881 17.5027 3.4231 16.7973 4.40001 16.7999C4.62092 16.7999 4.80001 16.6209 4.80001 16.3999C4.80001 16.179 4.62092 15.9999 4.40001 15.9999Z" fill="black"/>
<path d="M5.99998 16.8C6.22089 16.8 6.39998 16.6209 6.39998 16.4C6.39998 16.1791 6.22089 16 5.99998 16C5.77906 16 5.59998 16.1791 5.59998 16.4C5.59998 16.6209 5.77906 16.8 5.99998 16.8Z" fill="black"/>
<path d="M16.8 7.19998C17.2419 7.19998 17.6 6.8418 17.6 6.39998V1.24198C17.6 0.894274 17.3754 0.586399 17.0443 0.480233C16.7132 0.374066 16.3514 0.49392 16.1492 0.776776L15.2376 2.05318L14.2944 0.403176C14.1519 0.154107 13.887 0.000427246 13.6 0.000427246C13.3131 0.000427246 13.0481 0.154107 12.9056 0.403176L12 1.98758L11.0944 0.403176C10.9519 0.154107 10.687 0.000427246 10.4 0.000427246C10.1131 0.000427246 9.84811 0.154107 9.70562 0.403176L8.76242 2.05318L7.85082 0.776776C7.64861 0.49392 7.28685 0.374066 6.95575 0.480233C6.62466 0.586399 6.40005 0.894274 6.40002 1.24198V6.39998C6.40002 6.8418 6.7582 7.19998 7.20002 7.19998H16.8ZM7.20002 1.23998L8.47482 3.02438C8.55212 3.13757 8.6837 3.20123 8.82042 3.19158C8.95628 3.18481 9.07938 3.10947 9.14722 2.99158L10.4 0.799976L11.6528 2.99198C11.7297 3.10881 11.8602 3.17916 12 3.17916C12.1399 3.17916 12.2704 3.10881 12.3472 2.99198L13.6 0.799976L14.8528 2.99198C14.9207 3.10987 15.0438 3.18521 15.1796 3.19198C15.3161 3.20009 15.4469 3.13678 15.5252 3.02478L16.8 1.24198V6.39998H7.20002V1.23998Z" fill="black"/>
<path d="M10.8 4.8C11.0209 4.8 11.2 4.62091 11.2 4.4C11.2 4.17909 11.0209 4 10.8 4C10.5791 4 10.4 4.17909 10.4 4.4C10.4 4.62091 10.5791 4.8 10.8 4.8Z" fill="black"/>
<path d="M8.4 4.8C8.62091 4.8 8.8 4.62091 8.8 4.4C8.8 4.17909 8.62091 4 8.4 4C8.17909 4 8 4.17909 8 4.4C8 4.62091 8.17909 4.8 8.4 4.8Z" fill="black"/>
<path d="M15.6 4.8C15.8209 4.8 16 4.62091 16 4.4C16 4.17909 15.8209 4 15.6 4C15.379 4 15.2 4.17909 15.2 4.4C15.2 4.62091 15.379 4.8 15.6 4.8Z" fill="black"/>
<path d="M13.2 4.8C13.421 4.8 13.6 4.62091 13.6 4.4C13.6 4.17909 13.421 4 13.2 4C12.9791 4 12.8 4.17909 12.8 4.4C12.8 4.62091 12.9791 4.8 13.2 4.8Z" fill="black"/>
</g>
<defs>
<clipPath id="clip0_992_18635">
<rect width="24" height="24" fill="white"/>
</clipPath>
</defs>
</svg>
