<svg width="24" height="24" viewBox="0 0 24 24" fill="none" xmlns="http://www.w3.org/2000/svg">
<path fill-rule="evenodd" clip-rule="evenodd" d="M6.99997 6.45C5.75736 6.45 4.75 7.45734 4.75 8.7V18C4.75 19.2427 5.75736 20.25 6.99997 20.25H14.25C15.4926 20.25 16.5 19.2427 16.5 18V8.7C16.5 7.45734 15.4926 6.45 14.25 6.45H6.99997ZM3.25 8.7C3.25 6.62892 4.92893 4.94999 6.99997 4.94999H14.25C16.3211 4.94999 18 6.62892 18 8.7V18C18 20.0711 16.3211 21.75 14.25 21.75H6.99997C4.92893 21.75 3.25 20.0711 3.25 18V8.7Z" fill="#8E8E8E"/>
<path fill-rule="evenodd" clip-rule="evenodd" d="M10.3099 3C10.3099 2.58578 10.6458 2.25 11.0599 2.25H17.3499C19.2369 2.25 20.7499 3.8086 20.7499 5.69999V14.27C20.7499 14.6842 20.4142 15.02 19.9999 15.02C19.5858 15.02 19.2499 14.6842 19.2499 14.27V5.69999C19.2499 4.61139 18.383 3.75 17.3499 3.75H11.0599C10.6458 3.75 10.3099 3.41422 10.3099 3Z" fill="#8E8E8E"/>
<path fill-rule="evenodd" clip-rule="evenodd" d="M6.82996 17.4C6.82996 16.9858 7.16578 16.65 7.57996 16.65H11.12C11.5342 16.65 11.87 16.9858 11.87 17.4C11.87 17.8142 11.5342 18.15 11.12 18.15H7.57996C7.16578 18.15 6.82996 17.8142 6.82996 17.4Z" fill="#8E8E8E"/>
</svg>
