<svg width="24" height="24" viewBox="0 0 24 24" fill="none" xmlns="http://www.w3.org/2000/svg">
<g clip-path="url(#clip0_2_764)">
<path d="M21.8584 8.29719H18.7269V5.1146C18.7269 4.72631 18.4121 4.41151 18.0238 4.41151H17.3207V2.78464C17.3207 1.24917 16.0715 0 14.536 0H9.46399C7.92848 0 6.67931 1.24917 6.67931 2.78464V4.41146H5.97621C5.58792 4.41146 5.27312 4.72626 5.27312 5.11456V8.29714H2.14157C1.75328 8.29714 1.43848 8.61194 1.43848 9.00024V23.2969C1.43848 23.6852 1.75328 24 2.14157 24H21.8584C22.2467 24 22.5615 23.6852 22.5615 23.2969V9.00029C22.5615 8.61199 22.2467 8.29719 21.8584 8.29719ZM8.0855 2.78464C8.0855 2.02454 8.7039 1.40619 9.46399 1.40619H14.536C15.2961 1.40619 15.9145 2.02454 15.9145 2.78464V4.41146H8.0855V2.78464ZM17.3207 5.81765V22.5938H15.8091V19.1664C15.8091 18.7781 15.4943 18.4633 15.106 18.4633H8.89397C8.50567 18.4633 8.19087 18.7781 8.19087 19.1664V22.5938H6.67931V5.81765H17.3207ZM12.7031 19.8695H14.4029V22.5938H12.7031V19.8695ZM11.2969 22.5938H9.59702V19.8695H11.2969V22.5938ZM2.84467 9.70338H5.27312V22.5938H2.84467V9.70338ZM21.1553 22.5938H18.7269V9.70338H21.1553V22.5938Z" fill="#8E8E8E"/>
<path d="M14.4167 16.5075C14.5066 16.992 15.09 17.2333 15.4962 16.9546C15.987 16.6314 15.874 15.8644 15.3101 15.6975C14.81 15.5394 14.3084 15.9944 14.4167 16.5075Z" fill="#8E8E8E"/>
<path d="M11.5542 16.9133C12.0094 17.2884 12.7037 16.9596 12.7031 16.3701C12.7071 15.8452 12.1297 15.4983 11.6686 15.75C11.231 15.9758 11.1687 16.6067 11.5542 16.9133Z" fill="#8E8E8E"/>
<path d="M8.2047 16.5075C8.30257 17.0231 8.93733 17.2495 9.33997 16.9133C9.87207 16.468 9.5163 15.609 8.82483 15.6703C8.42313 15.701 8.11597 16.1141 8.2047 16.5075Z" fill="#8E8E8E"/>
<path d="M15.7953 13.4199C15.6967 12.9043 15.0631 12.6779 14.66 13.014C14.2038 13.3868 14.3899 14.133 14.9684 14.2467C15.4499 14.3509 15.8988 13.9013 15.7953 13.4199Z" fill="#8E8E8E"/>
<path d="M11.3104 13.6951C11.4015 14.18 11.9833 14.4209 12.3904 14.1423C12.881 13.8158 12.7691 13.0547 12.2042 12.8851C11.7039 12.7271 11.2026 13.1816 11.3104 13.6951Z" fill="#8E8E8E"/>
<path d="M8.20473 13.6951C8.29459 14.1797 8.87792 14.4209 9.28417 14.1423C9.77531 13.8163 9.66309 13.0541 9.09809 12.8851C8.5979 12.7271 8.09631 13.1819 8.20473 13.6951Z" fill="#8E8E8E"/>
<path d="M15.8055 10.676C15.7578 10.1533 15.1502 9.8656 14.7157 10.1604C14.2251 10.4834 14.3378 11.2511 14.9019 11.4175C15.3712 11.5684 15.8607 11.1652 15.8055 10.676Z" fill="#8E8E8E"/>
<path d="M11.3105 10.8827C11.4014 11.3676 11.9834 11.6084 12.3905 11.3299C12.8812 11.0035 12.769 10.2417 12.2039 10.0727C11.7037 9.91467 11.2028 10.3697 11.3105 10.8827Z" fill="#8E8E8E"/>
<path d="M8.20474 10.8827C8.29459 11.3673 8.87793 11.6086 9.28418 11.3299C9.77513 11.0041 9.66291 10.2418 9.09809 10.0727C8.59805 9.91458 8.09627 10.3697 8.20474 10.8827Z" fill="#8E8E8E"/>
<path d="M14.4167 8.07034C14.5065 8.55496 15.0901 8.79594 15.4962 8.51751C15.9868 8.19418 15.874 7.42724 15.3101 7.26037C14.81 7.10236 14.3084 7.55727 14.4167 8.07034Z" fill="#8E8E8E"/>
<path d="M11.3105 8.07033C11.4012 8.55467 11.9835 8.7962 12.3899 8.5175C12.8814 8.1921 12.7691 7.4299 12.2043 7.26036C11.7038 7.10235 11.203 7.55688 11.3105 8.07033Z" fill="#8E8E8E"/>
<path d="M8.20475 8.07034C8.29461 8.555 8.87794 8.79593 9.28419 8.51751C9.77505 8.19446 9.66213 7.42714 9.09811 7.26037C8.59764 7.10241 8.0968 7.55703 8.20475 8.07034Z" fill="#8E8E8E"/>
</g>
<defs>
<clipPath id="clip0_2_764">
<rect width="24" height="24" fill="white"/>
</clipPath>
</defs>
</svg>
