<svg width="24" height="24" viewBox="0 0 24 24" fill="none" xmlns="http://www.w3.org/2000/svg">
<path d="M15.3428 8.65725C15.2022 8.51665 15.0114 8.43766 14.8126 8.43766C14.6137 8.43766 14.423 8.51665 14.2823 8.65725L8.65731 14.2822C8.58568 14.3514 8.52854 14.4342 8.48923 14.5257C8.44993 14.6172 8.42924 14.7156 8.42837 14.8152C8.42751 14.9148 8.44648 15.0135 8.4842 15.1057C8.52191 15.1979 8.5776 15.2816 8.64802 15.352C8.71843 15.4225 8.80217 15.4782 8.89435 15.5159C8.98652 15.5536 9.08528 15.5726 9.18486 15.5717C9.28445 15.5708 9.38286 15.5501 9.47436 15.5108C9.56587 15.4715 9.64863 15.4144 9.71781 15.3428L15.3428 9.71775C15.4834 9.5771 15.5624 9.38637 15.5624 9.1875C15.5624 8.98863 15.4834 8.7979 15.3428 8.65725Z" fill="#8E8E8E"/>
<path d="M12 8.99999C12 8.55499 11.868 8.11997 11.6208 7.74996C11.3736 7.37995 11.0222 7.09156 10.611 6.92126C10.1999 6.75097 9.74751 6.70641 9.31105 6.79323C8.87459 6.88004 8.47368 7.09433 8.15901 7.409C7.84434 7.72367 7.63005 8.12458 7.54323 8.56104C7.45642 8.9975 7.50097 9.4499 7.67127 9.86103C7.84157 10.2722 8.12996 10.6236 8.49997 10.8708C8.86998 11.118 9.30499 11.25 9.75 11.25C10.3467 11.25 10.919 11.0129 11.341 10.591C11.7629 10.169 12 9.59673 12 8.99999ZM9 8.99999C9 8.85166 9.04399 8.70665 9.1264 8.58332C9.20881 8.45998 9.32594 8.36385 9.46299 8.30708C9.60003 8.25032 9.75083 8.23547 9.89632 8.2644C10.0418 8.29334 10.1754 8.36477 10.2803 8.46966C10.3852 8.57455 10.4567 8.70819 10.4856 8.85368C10.5145 8.99916 10.4997 9.14996 10.4429 9.28701C10.3861 9.42405 10.29 9.54118 10.1667 9.6236C10.0433 9.70601 9.89834 9.74999 9.75 9.74999C9.55109 9.74999 9.36032 9.67098 9.21967 9.53032C9.07902 9.38967 9 9.19891 9 8.99999Z" fill="#8E8E8E"/>
<path d="M14.25 12.75C13.805 12.75 13.37 12.882 13 13.1292C12.63 13.3764 12.3416 13.7278 12.1713 14.139C12.001 14.5501 11.9564 15.0025 12.0432 15.439C12.1301 15.8754 12.3443 16.2763 12.659 16.591C12.9737 16.9057 13.3746 17.12 13.811 17.2068C14.2475 17.2936 14.6999 17.249 15.111 17.0787C15.5222 16.9084 15.8736 16.62 16.1208 16.25C16.368 15.88 16.5 15.445 16.5 15C16.5 14.4033 16.2629 13.831 15.841 13.409C15.419 12.9871 14.8467 12.75 14.25 12.75ZM14.25 15.75C14.1017 15.75 13.9567 15.706 13.8333 15.6236C13.71 15.5412 13.6139 15.4241 13.5571 15.287C13.5003 15.15 13.4855 14.9992 13.5144 14.8537C13.5434 14.7082 13.6148 14.5746 13.7197 14.4697C13.8246 14.3648 13.9582 14.2933 14.1037 14.2644C14.2492 14.2355 14.4 14.2503 14.537 14.3071C14.6741 14.3639 14.7912 14.46 14.8736 14.5833C14.956 14.7067 15 14.8517 15 15C15 15.1989 14.921 15.3897 14.7803 15.5303C14.6397 15.671 14.4489 15.75 14.25 15.75Z" fill="#8E8E8E"/>
<path d="M21.546 9.879L20.6895 9.02175C20.5498 8.88284 20.439 8.71758 20.3635 8.53554C20.2881 8.3535 20.2495 8.1583 20.25 7.96125V6.75C20.25 5.95435 19.934 5.19129 19.3714 4.62868C18.8088 4.06607 18.0457 3.75 17.25 3.75H16.0388C15.8417 3.75053 15.6465 3.71196 15.4645 3.63652C15.2825 3.56107 15.1172 3.45026 14.9783 3.3105L14.121 2.454C13.5585 1.89158 12.7955 1.57564 12 1.57564C11.2045 1.57564 10.4416 1.89158 9.87904 2.454L9.02179 3.3105C8.88288 3.45026 8.71762 3.56107 8.53558 3.63652C8.35354 3.71196 8.15834 3.75053 7.96129 3.75H6.75004C5.95439 3.75 5.19133 4.06607 4.62872 4.62868C4.06611 5.19129 3.75004 5.95435 3.75004 6.75V7.96125C3.75058 8.1583 3.712 8.3535 3.63656 8.53554C3.56112 8.71758 3.45031 8.88284 3.31054 9.02175L2.45404 9.879C1.89163 10.4416 1.57568 11.2045 1.57568 12C1.57568 12.7955 1.89163 13.5584 2.45404 14.121L3.31054 14.9782C3.45031 15.1172 3.56112 15.2824 3.63656 15.4645C3.712 15.6465 3.75058 15.8417 3.75004 16.0387V17.25C3.75004 18.0456 4.06611 18.8087 4.62872 19.3713C5.19133 19.9339 5.95439 20.25 6.75004 20.25H7.96129C8.15834 20.2495 8.35354 20.288 8.53558 20.3635C8.71762 20.4389 8.88288 20.5497 9.02179 20.6895L9.87904 21.546C10.4416 22.1084 11.2045 22.4244 12 22.4244C12.7955 22.4244 13.5585 22.1084 14.121 21.546L14.9783 20.6895C15.1172 20.5497 15.2825 20.4389 15.4645 20.3635C15.6465 20.288 15.8417 20.2495 16.0388 20.25H17.25C18.0457 20.25 18.8088 19.9339 19.3714 19.3713C19.934 18.8087 20.25 18.0456 20.25 17.25V16.0387C20.2495 15.8417 20.2881 15.6465 20.3635 15.4645C20.439 15.2824 20.5498 15.1172 20.6895 14.9782L21.546 14.121C22.1085 13.5584 22.4244 12.7955 22.4244 12C22.4244 11.2045 22.1085 10.4416 21.546 9.879ZM20.4855 13.0605L19.629 13.9177C19.3494 14.1955 19.1277 14.526 18.9768 14.8901C18.8259 15.2542 18.7488 15.6446 18.75 16.0387V17.25C18.75 17.6478 18.592 18.0294 18.3107 18.3107C18.0294 18.592 17.6479 18.75 17.25 18.75H16.0388C15.6447 18.749 15.2543 18.8261 14.8902 18.977C14.5262 19.1279 14.1956 19.3495 13.9178 19.629L13.0605 20.4855C12.7793 20.7667 12.3978 20.9247 12 20.9247C11.6023 20.9247 11.2208 20.7667 10.9395 20.4855L10.083 19.629C9.80499 19.3496 9.47431 19.128 9.11013 18.9772C8.74595 18.8263 8.35549 18.7491 7.96129 18.75H6.75004C6.35222 18.75 5.97069 18.592 5.68938 18.3107C5.40808 18.0294 5.25004 17.6478 5.25004 17.25V16.0387C5.25107 15.6446 5.17391 15.2543 5.02303 14.8902C4.87214 14.5261 4.65054 14.1956 4.37104 13.9177L3.51454 13.0605C3.23334 12.7792 3.07536 12.3977 3.07536 12C3.07536 11.6023 3.23334 11.2208 3.51454 10.9395L4.37104 10.083C4.65046 9.80494 4.87201 9.47427 5.02288 9.11009C5.17375 8.74591 5.25096 8.35544 5.25004 7.96125V6.75C5.25004 6.35217 5.40808 5.97064 5.68938 5.68934C5.97069 5.40803 6.35222 5.25 6.75004 5.25H7.96129C8.35539 5.25102 8.74578 5.17386 9.10985 5.02298C9.47392 4.8721 9.80445 4.65049 10.0823 4.371L10.9395 3.5145C11.2208 3.23329 11.6023 3.07532 12 3.07532C12.3978 3.07532 12.7793 3.23329 13.0605 3.5145L13.917 4.371C14.1951 4.65042 14.5258 4.87196 14.8899 5.02283C15.2541 5.17371 15.6446 5.25092 16.0388 5.25H17.25C17.6479 5.25 18.0294 5.40803 18.3107 5.68934C18.592 5.97064 18.75 6.35217 18.75 6.75V7.96125C18.749 8.35534 18.8262 8.74573 18.9771 9.10981C19.1279 9.47388 19.3495 9.8044 19.629 10.0822L20.4855 10.9395C20.7667 11.2208 20.9247 11.6023 20.9247 12C20.9247 12.3977 20.7667 12.7792 20.4855 13.0605Z" fill="#8E8E8E"/>
</svg>
