<svg width="110" height="110" viewBox="0 0 110 110" fill="none" xmlns="http://www.w3.org/2000/svg">
<g clip-path="url(#clip0_1392_29535)">
<path fill-rule="evenodd" clip-rule="evenodd" d="M36.3445 109.162C35.9578 109.162 35.6356 108.969 35.3779 108.711L22.8764 94.9211L7.08846 84.9972C6.70182 84.7395 6.50849 84.3528 6.50849 83.9662L5.79965 65.3429L0.0644405 47.5573C-0.0644405 47.1706 0 46.7195 0.257762 46.3973L11.7282 31.6405L18.7522 14.3704C18.9455 13.9838 19.2677 13.726 19.6544 13.5971L37.891 9.66624L54.3878 0.966769C54.7745 0.773447 55.2255 0.773447 55.6122 0.966769L72.109 9.66624L90.2812 13.5971C90.7323 13.726 91.0545 13.9838 91.2478 14.3704L98.2718 31.6405L109.678 46.3973C109.936 46.7195 110.064 47.1706 109.936 47.5573L104.2 65.2784L103.492 83.9017C103.492 84.3528 103.234 84.7395 102.912 84.9972L87.1236 94.9211L74.6221 108.711C74.2999 109.034 73.9133 109.162 73.4622 109.098L54.9678 106.585L36.3445 109.162Z" fill="#F7CC3F"/>
<path fill-rule="evenodd" clip-rule="evenodd" d="M54.9673 94.4053C34.4108 94.4053 17.6562 77.7152 17.6562 57.0943C17.6562 36.5377 34.4108 19.7832 54.9673 19.7832C75.5883 19.7832 92.2784 36.5377 92.2784 57.0943C92.2784 77.7152 75.5883 94.4053 54.9673 94.4053Z" fill="#FFAC07"/>
<path fill-rule="evenodd" clip-rule="evenodd" d="M48.588 72.4959C48.2658 72.4959 47.9436 72.3671 47.6859 72.1093L33.4445 57.9324C29.1914 53.6149 35.6999 47.2997 39.8886 51.4883L48.588 60.2522L70.1112 38.7935C74.2998 34.5405 80.6794 40.9845 76.4908 45.1732L49.4902 72.1093C49.2969 72.3671 48.9747 72.4959 48.588 72.4959Z" fill="white"/>
</g>
<defs>
<clipPath id="clip0_1392_29535">
<rect width="110" height="110" fill="white"/>
</clipPath>
</defs>
</svg>
