<svg width="36" height="35" viewBox="0 0 36 35" fill="none" xmlns="http://www.w3.org/2000/svg">
<g clip-path="url(#clip0_3_24562)">
<mask id="mask0_3_24562" style="mask-type:luminance" maskUnits="userSpaceOnUse" x="0" y="0" width="36" height="34">
<path d="M33.2954 24.8422C31.7763 28.4464 28.9668 31.1029 24.867 32.8116C20.7671 34.5204 16.9612 34.2619 13.4494 32.0362C9.93757 29.8105 6.54007 27.154 3.25691 24.0667C-0.0262437 20.9795 -0.352926 17.605 2.27687 13.9433C4.90666 10.2817 8.30416 6.89284 12.4694 3.77684C16.6346 0.660845 21.543 0.00748992 27.1946 1.81678C32.8462 3.62607 35.6556 7.0149 35.623 11.9833C35.5903 16.9516 34.8144 21.2379 33.2954 24.8422Z" fill="white"/>
</mask>
<g mask="url(#mask0_3_24562)">
<path d="M33.2954 24.8422C31.7763 28.4464 28.9668 31.1029 24.867 32.8116C20.7671 34.5204 16.9612 34.2619 13.4494 32.0362C9.93757 29.8105 6.54007 27.154 3.25691 24.0667C-0.0262437 20.9795 -0.352926 17.605 2.27687 13.9433C4.90666 10.2817 8.30416 6.89284 12.4694 3.77684C16.6346 0.660845 21.543 0.00748992 27.1946 1.81678C32.8462 3.62607 35.6556 7.0149 35.623 11.9833C35.5903 16.9516 34.8144 21.2379 33.2954 24.8422Z" fill="white"/>
</g>
</g>
<g clip-path="url(#clip1_3_24562)">
<path d="M26.1474 16.1907H24.6809C24.6365 16.1907 24.5926 16.1925 24.5489 16.1954C24.2195 15.9014 23.8551 15.6587 23.4653 15.4717C24.3542 14.8403 24.9353 13.8027 24.9353 12.6319C24.9353 10.7127 23.3739 9.15121 21.4546 9.15121C19.5352 9.15121 17.9737 10.7127 17.9737 12.6319C17.9737 13.5543 18.3346 14.3939 18.9222 15.0173H16.3609C16.9485 14.3939 17.3092 13.5543 17.3092 12.6319C17.3092 10.7127 15.7478 9.15121 13.8285 9.15121C11.9092 9.15121 10.3477 10.7127 10.3477 12.6319C10.3477 13.7083 10.8389 14.672 11.6087 15.3111C11.0756 15.5104 10.581 15.8083 10.1473 16.1954C10.1036 16.1925 10.0598 16.1907 10.0155 16.1907H8.54889C8.24639 16.1907 8.00122 16.4358 8.00122 16.7383V19.6714C8.00122 19.9739 8.24639 20.2191 8.54889 20.2191H8.58783V24.3644C8.58783 24.6668 8.833 24.9121 9.1355 24.9121H25.5608C25.8633 24.9121 26.1085 24.6668 26.1085 24.3644V20.2191H26.1474C26.4499 20.2191 26.6951 19.9739 26.6951 19.6714V16.7383C26.6951 16.4358 26.4499 16.1907 26.1474 16.1907ZM25.5998 19.1237H24.6809C24.1743 19.1237 23.7619 18.7115 23.7619 18.2048C23.7619 17.6982 24.1743 17.286 24.6809 17.286H25.5998V19.1237ZM19.0691 12.6319C19.0691 11.3167 20.1392 10.2466 21.4544 10.2466C22.7697 10.2466 23.8399 11.3167 23.8399 12.6319C23.8399 13.9473 22.7698 15.0173 21.4546 15.0173C20.1392 15.0173 19.0691 13.9473 19.0691 12.6319ZM13.8285 10.2466C15.1438 10.2466 16.2139 11.3167 16.2139 12.6319C16.2139 13.9472 15.1438 15.0173 13.8285 15.0173C12.5131 15.0173 11.443 13.9473 11.443 12.6319C11.443 11.3167 12.5131 10.2466 13.8285 10.2466ZM9.09657 17.286H10.0155C10.5221 17.286 10.9344 17.6982 10.9344 18.2049C10.9344 18.7115 10.5221 19.1237 10.0155 19.1237H9.09657V17.286ZM9.68318 20.2191H10.0155C11.1261 20.2191 12.0298 19.3155 12.0298 18.2048C12.0298 17.5898 11.7522 17.0386 11.3164 16.6689H11.3293C11.8954 16.3068 12.5538 16.1128 13.2419 16.1128H18.4589C17.4454 16.9671 16.8005 18.2453 16.8005 19.6714V23.8167H12.0296V21.4312C12.0296 21.1288 11.7844 20.8835 11.4819 20.8835C11.1796 20.8835 10.9343 21.1288 10.9343 21.4312V23.8166H9.68318V20.2191ZM25.0132 23.8166H23.7619V21.4312C23.7619 21.1288 23.5168 20.8835 23.2143 20.8835C22.9119 20.8835 22.6666 21.1288 22.6666 21.4312V23.8166H17.8958V19.6714C17.8958 17.7092 19.4922 16.1128 21.4546 16.1128C22.1459 16.1128 22.8069 16.3085 23.3744 16.6736C22.9417 17.0434 22.6667 17.5924 22.6667 18.2049C22.6667 19.3155 23.5702 20.2191 24.681 20.2191H25.0132V23.8166Z" fill="black"/>
</g>
<defs>
<clipPath id="clip0_3_24562">
<rect width="35.2653" height="33.2785" fill="white" transform="translate(0.367432 0.755066)"/>
</clipPath>
<clipPath id="clip1_3_24562">
<rect width="18.6939" height="18.6939" fill="white" transform="translate(8.00122 7.65424)"/>
</clipPath>
</defs>
</svg>
