<svg width="134" height="37" viewBox="0 0 134 37" fill="none" xmlns="http://www.w3.org/2000/svg">
<g clip-path="url(#clip0_12_2122)">
<rect y="0.647583" width="36" height="36" rx="18" fill="#FEFA17"/>
<g clip-path="url(#clip1_12_2122)">
<path d="M36 36.6476H1.125C2.65423 35.8928 4.11995 35.0104 5.50726 34.0092C8.11772 32.1255 11.6613 30.2357 15.7365 29.8735C22.6642 29.2577 31.2457 34.3534 36 36.6476Z" fill="black"/>
<path d="M18.5596 24.9045C17.0831 21.3605 14.4254 19.8209 13.0197 19.682C12.617 19.6554 12.2132 19.7135 11.8333 19.8526C11.4534 19.9918 11.1055 20.2091 10.8109 20.491C11.0327 20.2162 11.2735 19.9579 11.5314 19.7182C11.1593 19.3741 10.7223 19.042 10.7223 19.042C11.1121 19.2292 11.5373 19.4767 11.6909 19.5733C12.0945 19.2135 12.525 18.8865 12.9784 18.5953C12.5902 18.2744 12.1818 17.9799 11.7559 17.7138C12.2901 17.8946 12.8062 18.1271 13.2973 18.4081C13.9063 18.0515 14.54 17.7407 15.1932 17.4783C14.9387 17.2619 14.6725 17.0603 14.3958 16.8745C14.778 17.0122 15.1492 17.1797 15.5062 17.3757C16.2093 17.1032 16.9294 16.8793 17.6619 16.7055C14.0356 15.6731 11.2007 16.8262 10.2085 17.8707C9.80551 18.3015 9.55054 18.8546 9.48204 19.4465C9.04935 18.4388 8.29298 17.6123 7.33816 17.104C5.17656 16.1802 3.01496 17.9915 3.01496 17.9915C3.91329 17.8139 4.84333 17.9235 5.67857 18.3054L6.48179 17.7681L5.93843 18.4262C6.78882 18.875 7.55785 19.4692 8.21225 20.1831C7.66822 19.8424 7.02441 19.7078 6.3932 19.8028C4.99347 20.0382 2.44798 21.765 1.21362 25.4056C1.75707 24.9045 2.33541 24.4445 2.94408 24.0291C2.994 23.6217 3.07096 23.2182 3.17442 22.8215C3.16979 23.1643 3.18557 23.5071 3.22167 23.8479C3.80472 23.445 4.41676 23.0878 5.05253 22.7793C5.10386 22.2064 5.2107 21.6401 5.37146 21.0888C5.33742 21.5994 5.33742 22.1117 5.37146 22.6223C5.85895 22.4048 6.36254 22.2272 6.87749 22.091C6.87749 21.9038 6.93064 21.4088 7.00151 20.9741C7.00151 20.9741 7.00151 21.5295 7.0842 22.0367C7.27713 21.9924 7.474 21.9562 7.6748 21.928C6.96608 22.6404 6.25145 24.18 6.31642 27.4886C6.31642 27.4886 6.73574 26.5045 7.27319 25.4781C7.16924 25.0657 7.11372 24.6421 7.10782 24.2162C7.10782 24.2162 7.26138 24.7173 7.43265 25.1702C7.59212 24.8683 7.76339 24.5664 7.92876 24.3068L7.9701 24.2404C7.91104 23.9143 7.80473 23.2623 7.7752 22.8095C7.7752 22.8095 7.94648 23.4132 8.14728 23.9626C8.55034 23.3273 9.02401 22.7418 9.55882 22.2178C12.8544 28.0018 12.5118 36.4242 12.5118 36.4242L14.0592 36.2853C13.634 28.2554 11.0826 23.4676 10.1317 21.9401C10.8991 21.7976 11.6853 21.7976 12.4528 21.9401C12.4528 21.4269 12.4528 20.8714 12.4528 20.8714C12.5532 21.3001 12.624 21.7952 12.6477 21.9763C13.1715 22.0758 13.6869 22.2171 14.1891 22.3989C14.2001 21.8807 14.1764 21.3622 14.1183 20.8473C14.3156 21.3867 14.4601 21.9449 14.5494 22.5136C15.2146 22.7676 15.8602 23.0724 16.4807 23.4253C16.5 23.0835 16.5 22.7408 16.4807 22.3989C16.6103 22.7937 16.7129 23.1971 16.7878 23.6064C17.4081 23.9951 18.0002 24.4289 18.5596 24.9045Z" fill="black"/>
<path d="M9.57063 18.4684C10.4211 13.089 13.5513 10.0581 15.4412 9.37585C15.984 9.19783 16.557 9.1365 17.1242 9.19573C17.6913 9.25495 18.2403 9.43344 18.7368 9.71999C18.341 9.42713 17.9244 9.16478 17.4906 8.9351C17.8863 8.33135 18.3765 7.72759 18.3765 7.72759C17.904 8.12003 17.4079 8.60908 17.2248 8.7902C16.5539 8.44188 15.8567 8.14913 15.14 7.91475C15.5626 7.33491 16.0223 6.78429 16.5161 6.2665C15.8419 6.68788 15.2107 7.17736 14.6321 7.72759C13.6752 7.45416 12.7001 7.25237 11.7145 7.12383C11.9897 6.72949 12.2854 6.35059 12.6004 5.98877C12.1255 6.31635 11.6736 6.67747 11.2479 7.0695C10.2118 6.93771 9.16745 6.88524 8.12366 6.91252C12.7599 4.21976 17.0299 4.81748 18.7309 5.91632C19.4254 6.36803 19.9612 7.03418 20.2605 7.81815C20.6031 6.33291 21.2409 4.74503 22.4162 3.85751C25.0385 1.86511 28.6057 3.59186 28.6057 3.59186C27.3158 3.66049 26.0781 4.13495 25.0621 4.95031L23.7805 4.49145L24.7491 5.20992C23.7305 6.11632 22.8715 7.19456 22.2095 8.39776C22.8479 7.75793 23.6819 7.36151 24.5719 7.27477C26.5799 7.12383 30.6551 8.597 33.5431 13.1614C32.6253 12.6504 31.6742 12.2046 30.6964 11.8271C30.4972 11.2784 30.2583 10.7457 29.9818 10.2332C30.1008 10.7024 30.1934 11.1781 30.2594 11.658C29.3238 11.3106 28.3644 11.0342 27.3891 10.8309C27.1311 10.0614 26.7966 9.32094 26.391 8.62115C26.5978 9.31344 26.7576 10.0195 26.8693 10.7343C26.1279 10.6031 25.3775 10.5324 24.6251 10.523C24.5424 10.2754 24.3238 9.60527 24.0817 9.03774C24.0817 9.03774 24.2412 9.81055 24.3238 10.523C24.0463 10.523 23.7332 10.523 23.4911 10.5713C24.6723 11.3079 26.1901 13.1674 27.1942 17.7318C27.1942 17.7318 26.2906 16.5243 25.2157 15.3168C25.2243 14.7071 25.1588 14.0987 25.0208 13.5055C25.0208 13.5055 24.9794 14.2482 24.8967 14.9304C24.5778 14.5742 24.2471 14.224 23.9281 13.9161L23.8514 13.8436C23.8514 13.3727 23.751 12.449 23.6388 11.815C23.6388 11.815 23.6388 12.7086 23.5088 13.5297C22.7573 12.812 21.9269 12.186 21.0342 11.6641C18.4415 20.7204 21.6898 32.1918 21.6898 32.1918L19.5164 32.542C17.4492 21.3906 19.3569 13.9101 20.1542 11.4769C19.0549 11.5403 17.9752 11.8019 16.965 12.2497C16.7523 11.5614 16.5929 10.7886 16.5929 10.7886C16.5981 11.3192 16.6296 11.8492 16.6874 12.3765C15.9995 12.6914 15.3378 13.0629 14.7089 13.4874C14.5306 12.7848 14.3984 12.0708 14.3132 11.3501C14.224 12.152 14.2121 12.9609 14.2777 13.7652C13.4665 14.355 12.6986 15.0047 11.9803 15.7093C11.8504 15.2426 11.7459 14.7689 11.6673 14.2904C11.6275 14.8754 11.6275 15.4624 11.6673 16.0474C10.9113 16.8008 10.2106 17.61 9.57063 18.4684Z" fill="black"/>
</g>
</g>
<path d="M46.86 27.1476V15.0076H42.2V12.7476H53.93V15.0076H49.27V27.1476H46.86ZM54.5328 27.1476V16.3476H56.6628V18.9776L56.4028 18.6376C56.5361 18.2776 56.7128 17.9509 56.9328 17.6576C57.1595 17.3576 57.4295 17.1109 57.7428 16.9176C58.0095 16.7376 58.3028 16.5976 58.6228 16.4976C58.9495 16.3909 59.2828 16.3276 59.6228 16.3076C59.9628 16.2809 60.2928 16.2942 60.6128 16.3476V18.5976C60.2928 18.5042 59.9228 18.4742 59.5028 18.5076C59.0895 18.5409 58.7161 18.6576 58.3828 18.8576C58.0495 19.0376 57.7761 19.2676 57.5628 19.5476C57.3561 19.8276 57.2028 20.1476 57.1028 20.5076C57.0028 20.8609 56.9528 21.2442 56.9528 21.6576V27.1476H54.5328ZM65.2872 27.4476C64.5072 27.4476 63.8472 27.3009 63.3072 27.0076C62.7672 26.7076 62.3572 26.3109 62.0772 25.8176C61.8039 25.3242 61.6672 24.7809 61.6672 24.1876C61.6672 23.6676 61.7539 23.2009 61.9272 22.7876C62.1005 22.3676 62.3672 22.0076 62.7272 21.7076C63.0872 21.4009 63.5539 21.1509 64.1272 20.9576C64.5605 20.8176 65.0672 20.6909 65.6472 20.5776C66.2339 20.4642 66.8672 20.3609 67.5472 20.2676C68.2339 20.1676 68.9505 20.0609 69.6972 19.9476L68.8372 20.4376C68.8439 19.6909 68.6772 19.1409 68.3372 18.7876C67.9972 18.4342 67.4239 18.2576 66.6172 18.2576C66.1305 18.2576 65.6605 18.3709 65.2072 18.5976C64.7539 18.8242 64.4372 19.2142 64.2572 19.7676L62.0572 19.0776C62.3239 18.1642 62.8305 17.4309 63.5772 16.8776C64.3305 16.3242 65.3439 16.0476 66.6172 16.0476C67.5772 16.0476 68.4205 16.2042 69.1472 16.5176C69.8805 16.8309 70.4239 17.3442 70.7772 18.0576C70.9705 18.4376 71.0872 18.8276 71.1272 19.2276C71.1672 19.6209 71.1872 20.0509 71.1872 20.5176V27.1476H69.0772V24.8076L69.4272 25.1876C68.9405 25.9676 68.3705 26.5409 67.7172 26.9076C67.0705 27.2676 66.2605 27.4476 65.2872 27.4476ZM65.7672 25.5276C66.3139 25.5276 66.7805 25.4309 67.1672 25.2376C67.5539 25.0442 67.8605 24.8076 68.0872 24.5276C68.3205 24.2476 68.4772 23.9842 68.5572 23.7376C68.6839 23.4309 68.7539 23.0809 68.7672 22.6876C68.7872 22.2876 68.7972 21.9642 68.7972 21.7176L69.5372 21.9376C68.8105 22.0509 68.1872 22.1509 67.6672 22.2376C67.1472 22.3242 66.7005 22.4076 66.3272 22.4876C65.9539 22.5609 65.6239 22.6442 65.3372 22.7376C65.0572 22.8376 64.8205 22.9542 64.6272 23.0876C64.4339 23.2209 64.2839 23.3742 64.1772 23.5476C64.0772 23.7209 64.0272 23.9242 64.0272 24.1576C64.0272 24.4242 64.0939 24.6609 64.2272 24.8676C64.3605 25.0676 64.5539 25.2276 64.8072 25.3476C65.0672 25.4676 65.3872 25.5276 65.7672 25.5276ZM76.32 27.1476L72.4 16.3476H74.81L77.53 24.1776L80.24 16.3476H82.66L78.74 27.1476H76.32ZM84.6547 14.7076V12.4976H87.0647V14.7076H84.6547ZM84.6547 27.1476V16.3476H87.0647V27.1476H84.6547ZM90.2602 27.1476V12.4476H92.6702V27.1476H90.2602ZM98.6856 27.4476C97.9056 27.4476 97.2456 27.3009 96.7056 27.0076C96.1656 26.7076 95.7556 26.3109 95.4756 25.8176C95.2023 25.3242 95.0656 24.7809 95.0656 24.1876C95.0656 23.6676 95.1523 23.2009 95.3256 22.7876C95.499 22.3676 95.7656 22.0076 96.1256 21.7076C96.4856 21.4009 96.9523 21.1509 97.5256 20.9576C97.959 20.8176 98.4656 20.6909 99.0456 20.5776C99.6323 20.4642 100.266 20.3609 100.946 20.2676C101.632 20.1676 102.349 20.0609 103.096 19.9476L102.236 20.4376C102.242 19.6909 102.076 19.1409 101.736 18.7876C101.396 18.4342 100.822 18.2576 100.016 18.2576C99.529 18.2576 99.059 18.3709 98.6056 18.5976C98.1523 18.8242 97.8356 19.2142 97.6556 19.7676L95.4556 19.0776C95.7223 18.1642 96.229 17.4309 96.9756 16.8776C97.729 16.3242 98.7423 16.0476 100.016 16.0476C100.976 16.0476 101.819 16.2042 102.546 16.5176C103.279 16.8309 103.822 17.3442 104.176 18.0576C104.369 18.4376 104.486 18.8276 104.526 19.2276C104.566 19.6209 104.586 20.0509 104.586 20.5176V27.1476H102.476V24.8076L102.826 25.1876C102.339 25.9676 101.769 26.5409 101.116 26.9076C100.469 27.2676 99.659 27.4476 98.6856 27.4476ZM99.1656 25.5276C99.7123 25.5276 100.179 25.4309 100.566 25.2376C100.952 25.0442 101.259 24.8076 101.486 24.5276C101.719 24.2476 101.876 23.9842 101.956 23.7376C102.082 23.4309 102.152 23.0809 102.166 22.6876C102.186 22.2876 102.196 21.9642 102.196 21.7176L102.936 21.9376C102.209 22.0509 101.586 22.1509 101.066 22.2376C100.546 22.3242 100.099 22.4076 99.7256 22.4876C99.3523 22.5609 99.0223 22.6442 98.7356 22.7376C98.4556 22.8376 98.219 22.9542 98.0256 23.0876C97.8323 23.2209 97.6823 23.3742 97.5756 23.5476C97.4756 23.7209 97.4256 23.9242 97.4256 24.1576C97.4256 24.4242 97.4923 24.6609 97.6256 24.8676C97.759 25.0676 97.9523 25.2276 98.2056 25.3476C98.4656 25.4676 98.7856 25.5276 99.1656 25.5276Z" fill="black"/>
<defs>
<clipPath id="clip0_12_2122">
<rect y="0.647583" width="36" height="36" rx="18" fill="white"/>
</clipPath>
<clipPath id="clip1_12_2122">
<rect width="34.875" height="33.75" fill="white" transform="translate(1.125 2.89758)"/>
</clipPath>
</defs>
</svg>
